<svg width="16" height="12" viewBox="0 0 16 12" fill="none" xmlns="http://www.w3.org/2000/svg">
<path d="M0.851807 2.2957L8.24403 5.8939L15.6363 2.2957C15.6089 1.8371 15.4025 1.40604 15.0593 1.0908C14.7161 0.775567 14.2621 0.600013 13.7903 0.600098H2.69778C2.22597 0.600013 1.77197 0.775567 1.42878 1.0908C1.08559 1.40604 0.879172 1.8371 0.851807 2.2957Z" fill="#FFD70F"/>
<path d="M15.6388 4.30615L8.24375 7.90615L0.848755 4.30615V9.59995C0.848755 10.0773 1.04353 10.5352 1.39024 10.8727C1.73695 11.2103 2.20719 11.4 2.6975 11.4H13.79C14.2803 11.4 14.7506 11.2103 15.0973 10.8727C15.444 10.5352 15.6388 10.0773 15.6388 9.59995V4.30615Z" fill="#FFD70F"/>
</svg>
