<svg width="35" height="34" viewBox="0 0 35 34" fill="none" xmlns="http://www.w3.org/2000/svg">
<path d="M28.075 0.133301H6.99163C3.4997 0.133301 0.666626 2.96637 0.666626 6.4583V27.5416C0.666626 31.0336 3.4997 33.8666 6.99163 33.8666H28.075C31.5669 33.8666 34.4 31.0336 34.4 27.5416V6.4583C34.4 2.96637 31.5669 0.133301 28.075 0.133301ZM27.2184 18.3025H24.061V29.9845H18.7902V18.3025H16.7427V14.3646H18.7902V11.8558C18.7902 8.5717 20.1535 6.62048 24.0306 6.62048H27.9533V10.5432H25.6727C24.1674 10.5432 24.0661 11.1007 24.0661 12.1549L24.061 14.3646H27.6492L27.2184 18.3025Z" fill="white"/>
</svg>
