<svg width="35" height="34" viewBox="0 0 35 34" fill="none" xmlns="http://www.w3.org/2000/svg">
<g clip-path="url(#clip0)">
<path d="M0.86652 28.9302C0.86652 31.6567 3.0654 33.8666 5.77773 33.8666H29.6886C32.4011 33.8666 34.5999 31.6567 34.5999 28.9302V5.0697C34.5999 2.34337 32.4011 0.133301 29.6886 0.133301H5.77773C3.06531 0.133301 0.86652 2.34337 0.86652 5.0697V28.9302Z" fill="#FAAB62"/>
<path d="M1.03969 28.8083C1.03969 31.5066 3.21596 33.6939 5.90048 33.6939H29.5658C32.2503 33.6939 34.4265 31.5066 34.4265 28.8083V5.19276C34.4265 2.49447 32.2502 0.307129 29.5658 0.307129H5.90048C3.21596 0.307129 1.03969 2.49456 1.03969 5.19276V28.8083Z" fill="#F7931E"/>
<path d="M17.7518 5.1748C21.095 5.1748 23.8052 7.89895 23.8052 11.2592C23.8052 14.6196 21.095 17.3439 17.7518 17.3439C14.4085 17.3439 11.6984 14.6196 11.6984 11.2592C11.6984 7.89895 14.4085 5.1748 17.7518 5.1748ZM17.7518 13.7746C19.1338 13.7746 20.2541 12.6484 20.2541 11.2593C20.2541 9.87027 19.1338 8.74416 17.7518 8.74416C16.3698 8.74416 15.2494 9.87027 15.2494 11.2593C15.2494 12.6484 16.3698 13.7746 17.7518 13.7746Z" fill="white"/>
<path d="M15.615 22.1856C13.1915 21.6894 11.7393 20.5359 11.6625 20.474C10.9533 19.9023 10.8394 18.8611 11.4081 18.1483C11.9767 17.4355 13.0126 17.321 13.7219 17.8925C13.7369 17.9047 15.2858 19.099 17.8343 19.1008C20.3827 19.099 21.9644 17.9047 21.9793 17.8925C22.6887 17.321 23.7245 17.4355 24.2931 18.1483C24.8618 18.8611 24.7479 19.9023 24.0387 20.474C23.9609 20.5367 22.4487 21.7203 19.9574 22.2049L23.4295 25.8522C24.0605 26.5099 24.0415 27.5572 23.3871 28.1915C23.0677 28.501 22.6561 28.6549 22.2448 28.6549C21.8135 28.6549 21.3827 28.4855 21.0598 28.1488L17.8342 24.6951L14.2828 28.1712C13.6393 28.8169 12.5973 28.8159 11.9551 28.1693C11.3128 27.5227 11.3136 26.4753 11.9569 25.8297L15.615 22.1856Z" fill="white"/>
<path d="M17.8322 19.1011C17.8426 19.1011 17.822 19.1013 17.8322 19.1015C17.8424 19.1013 17.8218 19.1011 17.8322 19.1011Z" fill="white"/>
</g>
<defs>
<clipPath id="clip0">
<rect width="33.7333" height="33.7333" fill="white" transform="matrix(-1 0 0 1 34.5999 0.133301)"/>
</clipPath>
</defs>
</svg>
