<svg width="42" height="8" viewBox="0 0 42 8" fill="none" xmlns="http://www.w3.org/2000/svg">
<path d="M0.449932 3.64644C0.254669 3.84171 0.254669 4.15829 0.449932 4.35355L3.63191 7.53553C3.82717 7.73079 4.14376 7.73079 4.33902 7.53553C4.53428 7.34027 4.53428 7.02369 4.33902 6.82842L1.51059 4L4.33902 1.17157C4.53428 0.976308 4.53428 0.659725 4.33902 0.464463C4.14376 0.269201 3.82718 0.269201 3.63191 0.464463L0.449932 3.64644ZM41.9821 3.5L21.3928 3.5L21.3928 4.5L41.9821 4.5L41.9821 3.5ZM21.3928 3.5L0.803486 3.5L0.803486 4.5L21.3928 4.5L21.3928 3.5Z" fill="white"/>
</svg>
