<svg width="19" height="18" viewBox="0 0 19 18" fill="none" xmlns="http://www.w3.org/2000/svg">
<path d="M16.645 9.92866C16.4353 9.92866 16.216 9.86525 16.0062 9.81996C15.5815 9.73102 15.164 9.61295 14.7572 9.46667C14.3149 9.31378 13.8287 9.32172 13.3922 9.48896C12.9557 9.65619 12.5997 9.97091 12.3927 10.3725L12.183 10.7802C11.2544 10.2894 10.401 9.67976 9.64689 8.96844C8.89823 8.25191 8.25663 7.44113 7.74005 6.55881L8.14048 6.30517C8.5632 6.10852 8.89443 5.77028 9.07045 5.35553C9.24646 4.94079 9.25482 4.47885 9.09391 4.0586C8.94252 3.67127 8.81831 3.27484 8.72207 2.87191C8.6744 2.67261 8.63626 2.46426 8.60766 2.25591C8.49188 1.61783 8.14013 1.04 7.61574 0.626463C7.09135 0.212929 6.4288 -0.00912562 5.74739 0.000287436H2.88712C2.47623 -0.00337822 2.06933 0.0771177 1.69411 0.236295C1.3189 0.395473 0.984197 0.629594 0.712777 0.922722C0.441356 1.21585 0.239597 1.5611 0.121233 1.93497C0.00286856 2.30885 -0.0293211 2.70256 0.0268552 3.08932C0.53478 6.88437 2.35895 10.4105 5.21124 13.1107C8.06352 15.8109 11.7813 17.5312 15.7774 18H16.1397C16.8428 18.001 17.5216 17.7559 18.0465 17.3115C18.3482 17.0552 18.5891 16.741 18.7535 16.3896C18.9178 16.0383 19.0018 15.6578 19 15.2733V12.5557C18.9883 11.9265 18.7471 11.3206 18.3176 10.8415C17.8882 10.3624 17.297 10.0397 16.645 9.92866ZM17.1217 15.3639C17.1216 15.4925 17.0926 15.6196 17.0367 15.7368C16.9808 15.8539 16.8993 15.9584 16.7976 16.0433C16.6913 16.1312 16.5668 16.1968 16.4321 16.2358C16.2974 16.2748 16.1555 16.2864 16.0158 16.2698C12.4451 15.8348 9.12845 14.2827 6.58899 11.8584C4.04953 9.43414 2.43178 6.27558 1.99091 2.88097C1.97573 2.74827 1.98903 2.61403 2.03 2.48636C2.07097 2.35869 2.13875 2.24023 2.22926 2.13815C2.31861 2.04152 2.42859 1.96408 2.55188 1.91097C2.67517 1.85787 2.80896 1.83032 2.94433 1.83015H5.8046C6.02631 1.82546 6.24281 1.89436 6.41683 2.02498C6.59085 2.1556 6.7115 2.33977 6.75802 2.54579C6.79616 2.7934 6.84383 3.03798 6.90103 3.27955C7.01117 3.75708 7.15775 4.22635 7.33961 4.68365L6.00482 5.27247C5.89069 5.32222 5.78803 5.3929 5.70273 5.48046C5.61743 5.56801 5.55118 5.67071 5.50777 5.78266C5.46436 5.8946 5.44465 6.0136 5.44978 6.1328C5.4549 6.252 5.48476 6.36907 5.53764 6.47728C6.90981 9.26987 9.27243 11.5147 12.2116 12.8184C12.4437 12.909 12.7041 12.909 12.9362 12.8184C13.0551 12.778 13.1644 12.7155 13.2577 12.6347C13.351 12.5538 13.4264 12.4561 13.4797 12.3473L14.0708 11.0791C14.5637 11.2466 15.0667 11.3857 15.5772 11.4958C15.8314 11.5502 16.0889 11.5955 16.3495 11.6317C16.5663 11.6759 16.7601 11.7905 16.8976 11.9559C17.0351 12.1212 17.1076 12.3269 17.1027 12.5376L17.1217 15.3639Z" fill="#FFD70F"/>
</svg>
