<svg width="40" height="40" viewBox="0 0 40 40" fill="none" xmlns="http://www.w3.org/2000/svg">
<rect x="1" y="1" width="38" height="38" rx="19" fill="#FFD70F" stroke="#FFD70F" stroke-width="2"/>
<path d="M27.645 21.9287C27.4353 21.9287 27.216 21.8653 27.0062 21.82C26.5815 21.731 26.164 21.613 25.7572 21.4667C25.3149 21.3138 24.8287 21.3217 24.3922 21.489C23.9557 21.6562 23.5997 21.9709 23.3927 22.3725L23.183 22.7802C22.2544 22.2894 21.401 21.6798 20.6469 20.9684C19.8982 20.2519 19.2566 19.4411 18.74 18.5588L19.1405 18.3052C19.5632 18.1085 19.8944 17.7703 20.0704 17.3555C20.2465 16.9408 20.2548 16.4788 20.0939 16.0586C19.9425 15.6713 19.8183 15.2748 19.7221 14.8719C19.6744 14.6726 19.6363 14.4643 19.6077 14.2559C19.4919 13.6178 19.1401 13.04 18.6157 12.6265C18.0914 12.2129 17.4288 11.9909 16.7474 12.0003H13.8871C13.4762 11.9966 13.0693 12.0771 12.6941 12.2363C12.3189 12.3955 11.9842 12.6296 11.7128 12.9227C11.4414 13.2159 11.2396 13.5611 11.1212 13.935C11.0029 14.3088 10.9707 14.7026 11.0269 15.0893C11.5348 18.8844 13.359 22.4105 16.2112 25.1107C19.0635 27.8109 22.7813 29.5312 26.7774 30H27.1397C27.8428 30.001 28.5216 29.7559 29.0465 29.3115C29.3482 29.0552 29.5891 28.741 29.7535 28.3896C29.9178 28.0383 30.0018 27.6578 30 27.2733V24.5557C29.9883 23.9265 29.7471 23.3206 29.3176 22.8415C28.8882 22.3624 28.297 22.0397 27.645 21.9287ZM28.1217 27.3639C28.1216 27.4925 28.0926 27.6196 28.0367 27.7368C27.9808 27.8539 27.8993 27.9584 27.7976 28.0433C27.6913 28.1312 27.5668 28.1968 27.4321 28.2358C27.2974 28.2748 27.1555 28.2864 27.0158 28.2698C23.4451 27.8348 20.1285 26.2827 17.589 23.8584C15.0495 21.4341 13.4318 18.2756 12.9909 14.881C12.9757 14.7483 12.989 14.614 13.03 14.4864C13.071 14.3587 13.1388 14.2402 13.2293 14.1381C13.3186 14.0415 13.4286 13.9641 13.5519 13.911C13.6752 13.8579 13.809 13.8303 13.9443 13.8302H16.8046C17.0263 13.8255 17.2428 13.8944 17.4168 14.025C17.5909 14.1556 17.7115 14.3398 17.758 14.5458C17.7962 14.7934 17.8438 15.038 17.901 15.2796C18.0112 15.7571 18.1578 16.2264 18.3396 16.6837L17.0048 17.2725C16.8907 17.3222 16.788 17.3929 16.7027 17.4805C16.6174 17.568 16.5512 17.6707 16.5078 17.7827C16.4644 17.8946 16.4447 18.0136 16.4498 18.1328C16.4549 18.252 16.4848 18.3691 16.5376 18.4773C17.9098 21.2699 20.2724 23.5147 23.2116 24.8184C23.4437 24.909 23.7041 24.909 23.9362 24.8184C24.0551 24.778 24.1644 24.7155 24.2577 24.6347C24.351 24.5538 24.4264 24.4561 24.4797 24.3473L25.0708 23.0791C25.5637 23.2466 26.0667 23.3857 26.5772 23.4958C26.8314 23.5502 27.0889 23.5955 27.3495 23.6317C27.5663 23.6759 27.7601 23.7905 27.8976 23.9559C28.0351 24.1212 28.1076 24.3269 28.1027 24.5376L28.1217 27.3639Z" fill="#002E62"/>
</svg>
