<svg width="19" height="18" viewBox="0 0 19 18" fill="none" xmlns="http://www.w3.org/2000/svg">
<path d="M16.645 9.82179C16.4353 9.82179 16.216 9.76085 16.0062 9.71733C15.5815 9.63187 15.164 9.5184 14.7572 9.37783C14.3149 9.23091 13.8287 9.23854 13.3922 9.39925C12.9557 9.55996 12.5997 9.86238 12.3927 10.2483L12.183 10.6401C11.2544 10.1684 10.401 9.5826 9.64689 8.89905C8.89823 8.21049 8.25663 7.43137 7.74005 6.5835L8.14048 6.33976C8.5632 6.15079 8.89443 5.82575 9.07045 5.4272C9.24646 5.02865 9.25482 4.58474 9.09391 4.18091C8.94252 3.8087 8.81831 3.42774 8.72207 3.04054C8.6744 2.84903 8.63626 2.64882 8.60766 2.4486C8.49188 1.83543 8.14013 1.28015 7.61574 0.882766C7.09135 0.485378 6.4288 0.271992 5.74739 0.281038H2.88712C2.47623 0.277515 2.06933 0.354869 1.69411 0.507831C1.3189 0.660794 0.984197 0.885775 0.712777 1.16746C0.441356 1.44914 0.239597 1.78091 0.121233 2.14019C0.00286856 2.49947 -0.0293211 2.87781 0.0268552 3.24946C0.53478 6.89635 2.35895 10.2848 5.21124 12.8796C8.06352 15.4743 11.7813 17.1275 15.7774 17.578H16.1397C16.8428 17.5789 17.5216 17.3434 18.0465 16.9164C18.3482 16.6701 18.5891 16.3682 18.7535 16.0305C18.9178 15.6929 19.0018 15.3272 19 14.9578V12.3463C18.9883 11.7416 18.7471 11.1594 18.3176 10.699C17.8882 10.2386 17.297 9.92853 16.645 9.82179ZM17.1217 15.0448C17.1216 15.1684 17.0926 15.2906 17.0367 15.4031C16.9808 15.5157 16.8993 15.6161 16.7976 15.6977C16.6913 15.7822 16.5668 15.8452 16.4321 15.8827C16.2974 15.9202 16.1555 15.9313 16.0158 15.9153C12.4451 15.4973 9.12845 14.0059 6.58899 11.6762C4.04953 9.34657 2.43178 6.31133 1.99091 3.04925C1.97573 2.92173 1.98903 2.79274 2.03 2.67005C2.07097 2.54736 2.13875 2.43353 2.22926 2.33543C2.31861 2.24258 2.42859 2.16816 2.55188 2.11712C2.67517 2.06609 2.80896 2.03962 2.94433 2.03946H5.8046C6.02631 2.03496 6.24281 2.10116 6.41683 2.22668C6.59085 2.3522 6.7115 2.52918 6.75802 2.72716C6.79616 2.9651 6.84383 3.20014 6.90103 3.43227C7.01117 3.89115 7.15775 4.34211 7.33961 4.78156L6.00482 5.34738C5.89069 5.39519 5.78803 5.46312 5.70273 5.54725C5.61743 5.63138 5.55118 5.73007 5.50777 5.83765C5.46436 5.94523 5.44465 6.05957 5.44978 6.17412C5.4549 6.28867 5.48476 6.40117 5.53764 6.50516C6.90981 9.18872 9.27243 11.3459 12.2116 12.5987C12.4437 12.6858 12.7041 12.6858 12.9362 12.5987C13.0551 12.5599 13.1644 12.4999 13.2577 12.4222C13.351 12.3444 13.4264 12.2506 13.4797 12.146L14.0708 10.9273C14.5637 11.0883 15.0667 11.222 15.5772 11.3278C15.8314 11.38 16.0889 11.4235 16.3495 11.4583C16.5663 11.5008 16.7601 11.611 16.8976 11.7699C17.0351 11.9287 17.1076 12.1264 17.1027 12.3288L17.1217 15.0448Z" fill="#67BDFD"/>
</svg>
