<svg width="44" height="27" viewBox="0 0 44 27" fill="none" xmlns="http://www.w3.org/2000/svg">
<path d="M42.8565 23.7354C41.1344 20.6362 36.6983 16.9121 34.8669 15.2915C34.3657 14.8478 34.312 14.0802 34.7682 13.5895C38.2632 9.83383 41.0587 5.51845 42.0209 2.91083C42.4454 1.75891 41.5666 0.541828 40.3284 0.541828H36.7318C35.5464 0.541828 34.8525 0.967328 34.5219 1.64487C31.6172 7.59708 29.1255 10.1731 27.3814 11.6786C26.4048 12.522 24.882 11.8233 24.882 10.5401C24.882 8.06762 24.882 4.87158 24.882 2.60512C24.882 1.50591 23.9831 0.616578 22.8743 0.616578L16.304 0.541828C15.4769 0.541828 15.0045 1.47812 15.5009 2.13458L16.5857 3.69187C16.994 4.23141 17.2144 4.88787 17.2144 5.56158L17.2087 12.5747C17.2087 13.7946 15.7299 14.3907 14.8521 13.5359C11.8822 10.6436 9.30528 4.73741 8.37761 1.9132C8.10928 1.09574 7.34357 0.543745 6.47532 0.541828L2.93236 0.533203C1.60315 0.533203 0.631403 1.79341 0.992695 3.06224C4.22994 14.4252 10.8722 25.2352 22.7095 26.4072C23.8758 26.5222 24.882 25.5831 24.882 24.4206V20.7349C24.882 19.6778 25.711 18.7693 26.7767 18.7425C26.814 18.7415 26.8514 18.7415 26.8888 18.7415C30.0197 18.7415 33.5262 23.2984 34.7529 25.4297C35.1055 26.0431 35.7649 26.4168 36.4779 26.4168H41.2437C42.6342 26.4168 43.5264 24.9419 42.8565 23.7354Z" fill="white"/>
</svg>
