<svg width="34" height="34" viewBox="0 0 34 34" fill="none" xmlns="http://www.w3.org/2000/svg">
<path d="M3.33327 0.133301C1.63894 0.133301 0.266602 1.50563 0.266602 3.19997V30.8C0.266602 32.4943 1.63894 33.8666 3.33327 33.8666H30.9333C32.6276 33.8666 33.9999 32.4943 33.9999 30.8V3.19997C33.9999 1.50563 32.6276 0.133301 30.9333 0.133301H3.33327ZM8.51725 3.54137H10.2782L10.982 6.84164C11.1614 7.6543 11.2944 8.34656 11.3803 8.92002H11.4342C11.494 8.50909 11.6255 7.82115 11.8325 6.85362L12.5632 3.54137H14.3242L12.2817 10.8217V14.3136H10.5327V10.8217L8.51725 3.54137ZM16.3576 6.29059C16.9403 6.29059 17.4051 6.40924 17.7562 6.64997C18.1073 6.88917 18.3633 7.26548 18.5259 7.77302C18.6884 8.28208 18.7714 8.96008 18.7714 9.80648V10.9505C18.7714 11.7908 18.6898 12.4629 18.5318 12.972C18.3739 13.481 18.1164 13.8559 17.7622 14.092C17.408 14.3282 16.9259 14.4424 16.3187 14.4424C15.6946 14.4424 15.204 14.3238 14.8482 14.083C14.4925 13.8438 14.2408 13.472 14.0906 12.966C13.9403 12.46 13.866 11.7892 13.866 10.9505V9.80648C13.866 8.95855 13.9503 8.27923 14.1205 7.76403C14.2922 7.25343 14.5627 6.87559 14.9261 6.64099C15.2895 6.40485 15.7658 6.29059 16.3576 6.29059ZM19.6938 6.44333H21.4637V12.2233C21.4637 12.5744 21.5023 12.8247 21.5805 12.975C21.6587 13.1252 21.7859 13.1996 21.9669 13.1996C22.1202 13.1996 22.2675 13.1539 22.4101 13.0588C22.5512 12.9653 22.6571 12.8451 22.7245 12.6994V6.44333H24.4975V14.3166H23.1079L22.9551 13.3523H22.9162C22.5405 14.0806 21.977 14.4454 21.2242 14.4454C20.7028 14.4454 20.3136 14.2722 20.0652 13.9303C19.8168 13.5884 19.6938 13.0534 19.6938 12.3251V6.44333ZM16.3187 7.51247C16.0795 7.51247 15.9107 7.64113 15.8126 7.90179C15.7144 8.16399 15.6658 8.57737 15.6658 9.14164V11.5944C15.6658 12.177 15.7115 12.5961 15.8066 12.8522C15.9016 13.1083 16.0733 13.2385 16.3217 13.2385C16.5686 13.237 16.7416 13.1098 16.8398 12.8522C16.9379 12.5961 16.9865 12.1755 16.9865 11.5944V9.14164C16.9865 8.57584 16.9379 8.16246 16.8398 7.90179C16.7416 7.63959 16.5671 7.51247 16.3187 7.51247ZM7.59186 15.808H26.6747C28.1743 15.808 29.3999 17.0337 29.3999 18.5333V28.0747C29.3999 29.5743 28.1743 30.8 26.6747 30.8H7.59186C6.09226 30.8 4.8666 29.5743 4.8666 28.0747V18.5333C4.8666 17.0337 6.09226 15.808 7.59186 15.808ZM17.2022 18.5333V27.9639H18.436L18.5887 27.335H18.6217C18.7382 27.5604 18.9097 27.7377 19.1428 27.8681C19.3743 27.9969 19.6303 28.0627 19.9124 28.0627C20.4184 28.0627 20.7873 27.8311 21.0265 27.365C21.2657 26.8988 21.3859 26.1693 21.3859 25.1788V24.1276H21.3829C21.3829 23.3839 21.3386 22.8018 21.2481 22.3816C21.1576 21.963 21.0117 21.6598 20.8109 21.4712C20.61 21.2826 20.3295 21.1897 19.9753 21.1897C19.6993 21.1897 19.4433 21.2684 19.2057 21.4233C18.9665 21.5781 18.782 21.7812 18.6516 22.0342H18.6426V18.5333H17.2022ZM8.25671 18.8717V20.0726H9.74213V27.9639H11.2036V20.0726H12.689V18.8717H8.25671ZM24.0782 21.1927C23.3345 21.1927 22.8096 21.4215 22.5029 21.8815C22.1963 22.3415 22.0417 23.0695 22.0417 24.0677V25.2267C22.0417 26.1957 22.1905 26.9124 22.488 27.3739C22.7854 27.8355 23.3017 28.0687 24.0393 28.0687C24.6541 28.0687 25.1275 27.9171 25.4648 27.6135C25.8021 27.3115 25.9709 26.8508 25.9709 26.2359C25.9709 26.1347 25.9651 26.0546 25.9589 25.9963L24.6682 25.9185C24.662 26.3233 24.6162 26.6137 24.5334 26.787C24.4506 26.9602 24.2945 27.0475 24.0722 27.0475C23.9066 27.0475 23.7836 26.9989 23.7038 26.9008C23.6241 26.8042 23.5742 26.6467 23.5481 26.4336C23.5221 26.2204 23.5092 25.9015 23.5092 25.4752V25.1368H26.0098V24.0018C26.0098 23.3011 25.9541 22.7503 25.8421 22.3517C25.7287 21.9545 25.5356 21.6643 25.2611 21.4772C24.9851 21.2886 24.5919 21.1927 24.0782 21.1927ZM12.2428 21.3185V26.2838C12.2428 26.8972 12.3472 27.3507 12.5572 27.6405C12.7673 27.9287 13.0889 28.0747 13.5305 28.0747C14.1669 28.0747 14.6461 27.7657 14.965 27.1493H14.995L15.1238 27.9639H16.2947H16.2977V21.3185H14.8033V26.5983C14.7451 26.721 14.6564 26.8226 14.5368 26.9008C14.4187 26.9805 14.2928 27.0205 14.1624 27.0205C14.0091 27.0205 13.9034 26.9591 13.839 26.8319C13.7731 26.7061 13.7402 26.4929 13.7402 26.197V21.3185H12.2428ZM24.0482 22.2049C24.2077 22.2049 24.325 22.2492 24.4016 22.3397C24.4783 22.4302 24.5313 22.5831 24.5574 22.8039C24.5865 23.0247 24.5993 23.3509 24.5993 23.7772V24.2534H23.5062V23.7772C23.5062 23.3433 23.5191 23.017 23.5451 22.8039C23.5697 22.5907 23.6182 22.4392 23.6949 22.3457C23.7715 22.2537 23.8888 22.2049 24.0482 22.2049ZM19.3015 22.2528C19.4548 22.2528 19.5721 22.3115 19.6549 22.4295C19.7362 22.5476 19.7964 22.7494 19.8286 23.0315C19.8608 23.3136 19.8765 23.7141 19.8765 24.2354V25.0919C19.8765 25.5764 19.8595 25.957 19.8196 26.2299C19.7797 26.5059 19.711 26.7019 19.616 26.8169C19.5209 26.9319 19.3981 26.9906 19.2386 26.9906C19.1144 26.9906 19.0015 26.9575 18.8972 26.9008C18.7929 26.8425 18.707 26.7567 18.6426 26.6402V22.8698C18.6932 22.6904 18.7805 22.5401 18.9032 22.4235C19.0259 22.307 19.1574 22.2528 19.3015 22.2528Z" fill="white"/>
</svg>
