<?xml version="1.0" encoding="utf-8"?>
<!-- Generator: Adobe Illustrator 23.1.0, SVG Export Plug-In . SVG Version: 6.00 Build 0)  -->
<svg version="1.1" id="Слой_1" xmlns="http://www.w3.org/2000/svg" xmlns:xlink="http://www.w3.org/1999/xlink" x="0px" y="0px"
	 viewBox="0 0 185.09 185.24" style="enable-background:new 0 0 185.09 185.24;" xml:space="preserve">
<style type="text/css">
	.st0{fill-rule:evenodd;clip-rule:evenodd;fill:#F8F8D8;}
	.st1{fill-rule:evenodd;clip-rule:evenodd;fill:#E4E6D2;}
	.st2{fill-rule:evenodd;clip-rule:evenodd;fill:#F8FAE6;}
	.st3{fill-rule:evenodd;clip-rule:evenodd;fill:#BDBEC0;}
	.st4{clip-path:url(#SVGID_2_);}
	.st5{clip-path:url(#SVGID_6_);}
	.st6{clip-path:url(#SVGID_10_);}
	.st7{clip-path:url(#SVGID_12_);}
	.st8{clip-path:url(#SVGID_16_);}
	.st9{clip-path:url(#SVGID_20_);}
	.st10{clip-path:url(#SVGID_24_);}
	.st11{clip-path:url(#SVGID_28_);}
	.st12{clip-path:url(#SVGID_32_);}
	.st13{clip-path:url(#SVGID_36_);}
	.st14{fill-rule:evenodd;clip-rule:evenodd;fill:#313562;}
	.st15{fill-rule:evenodd;clip-rule:evenodd;fill:#FF7100;}
	.st16{fill-rule:evenodd;clip-rule:evenodd;fill:#3F59C4;}
	.st17{fill-rule:evenodd;clip-rule:evenodd;fill:#D36528;}
	.st18{fill:none;stroke:#00000B;stroke-width:0.5669;stroke-miterlimit:22.9256;}
	.st19{clip-path:url(#SVGID_40_);}
	.st20{clip-path:url(#SVGID_42_);}
	.st21{fill-rule:evenodd;clip-rule:evenodd;fill:#4E579D;}
	.st22{fill-rule:evenodd;clip-rule:evenodd;fill:#373B6A;}
	.st23{fill-rule:evenodd;clip-rule:evenodd;fill:#4A5395;}
	.st24{fill-rule:evenodd;clip-rule:evenodd;fill:#4C5599;}
	.st25{fill-rule:evenodd;clip-rule:evenodd;fill:#14142A;}
	.st26{fill:#4E579D;}
	.st27{fill-rule:evenodd;clip-rule:evenodd;fill:#EE7100;}
	.st28{fill-rule:evenodd;clip-rule:evenodd;fill:none;}
	.st29{clip-path:url(#SVGID_46_);}
	.st30{clip-path:url(#SVGID_50_);}
	.st31{clip-path:url(#SVGID_54_);}
	.st32{clip-path:url(#SVGID_58_);}
	.st33{clip-path:url(#SVGID_62_);}
	.st34{clip-path:url(#SVGID_66_);}
	.st35{clip-path:url(#SVGID_70_);}
	.st36{clip-path:url(#SVGID_74_);}
	.st37{clip-path:url(#SVGID_76_);}
	.st38{fill-rule:evenodd;clip-rule:evenodd;fill:#FFFFFF;}
	.st39{fill:none;stroke:#FFFFFF;stroke-width:0.5669;stroke-miterlimit:22.9256;}
	.st40{fill:#313562;}
	.st41{clip-path:url(#SVGID_80_);}
	.st42{clip-path:url(#SVGID_82_);}
	.st43{fill:none;stroke:#FF7100;stroke-miterlimit:10;}
	.st44{fill-rule:evenodd;clip-rule:evenodd;fill:url(#SVGID_85_);}
</style>
<g>
	<path class="st38" d="M123,106.87c-0.88,2.03-8.54,6.26-10.84,7.01c-1.72,0.86-3.82,1.43-5.84,1.77c-1.7,0.62-6.46,1.44-8.36,1.08
		c-1.71,1.02-11.21-0.2-13.4-0.96l-3.99-1.12l-0.27,0.69c0.98,1.21,1.06,3.42,0.68,4.86c-0.14,0.54-0.09,0.4-0.31,0.79
		c-0.26,0.46-0.08,0.19-0.41,0.5c-0.1,0.93-0.19,1.19-1.04,1.5c-0.78,1.62-2.31,3.1-3.73,4.11c-0.37,0.38-0.45,0.46-0.91,0.8
		c-0.83,0.61-0.19,0.25-0.81,0.4c-0.26,0.38-0.11,0.22-0.41,0.54c-0.06,0.06-0.24,0.23-0.3,0.29l-1.99,1.31
		c-1.13,0.72-2.13,1.24-3.39,1.58c-1.63,1.16-6.48,1.55-8.8,1.28c-2.93-0.34-5.61-1.41-7.52-2.85c-1.8-0.99-2.72-1.8-3.66-3.64
		c-0.48-0.53-1.54-1.83-1.72-2.73c-0.56-0.32-0.32-0.17-0.85-0.35c-0.39,1.21-0.98,2.74-1.84,3.53c0,1.26-1.21,3.69-1.68,5.16
		c-0.57,1.79-0.96,3.49-1.48,5.31l-1.11,5.59l-0.74,5.47c-0.12,1.14-0.21,2.22-0.28,3.36c-0.06,0.97,0,2.32-0.43,3.16
		c0.45,1.25,0.16,3.15,0.14,4.61c-0.01,2.19,0.51,3.04,2.63,3.27l5.59-0.02l5.45-0.02l5.59-0.02l5.45-0.02l5.61-0.02l49.89-0.17
		l5.26-0.02l5.47-0.02l5.57-0.02l5.49-0.02l5.53-0.02l5.45-0.02c1.66-0.16,1.88-0.44,2.58-1.56l-0.11-6.93l-0.54-5.47l-0.85-5.55
		c-0.51-1.95-0.83-3.8-1.38-5.69c-0.55-1.88-1.17-3.5-1.68-5.27l-2.38-5.86c-0.54-0.39-0.98-1.47-1.01-2.14
		c-0.26-0.22-0.22-0.14-0.49-0.48l-1.56-2.9c-0.17-0.09-0.17-0.1-0.42-0.39c-0.98-1.15-2.56-3.92-4.39-5.81
		c-0.77-0.8-1.07-1.05-1.75-1.83c-0.77-0.88-1.19-1.12-1.99-1.89c-0.83-0.79-0.96-1.04-1.84-1.73c-1.47-1.16-2.91-2.09-4.23-3.16
		C124.53,103.95,125.69,105.56,123,106.87"/>
	<path class="st38" d="M93.5,21.9h4.83c0.81,0.29,5.65,0.64,7.32,0.99c2.52,0.52,4.12,1.14,6.42,1.87c3.83,2.12,5.2,2.61,8.05,5.42
		c0.99,0.97,2.18,2.44,3.06,3.84c0.42,0.67,2.19,3.99,2.43,4.16c0.48,1.87,1.22,3.4,1.73,5.45c0.5,2,0.84,3.87,1.23,5.87l0.59,5.55
		c0.12,1.56-0.14,5.48,0.44,6.48c-0.46,2.35-0.31,3.47,0.98,4.44c0.67,1.71,1.5,3.21,1.34,5.57c-0.22,2.27-1.41,3.9-1.47,5.36
		c-0.8,0.66-1.71,3.09-2.05,4.05l-1.18,1.66l-2.07,5.79c-0.99,1.17-1.98,3.84-3.01,5.32c-0.66,0.95-1.19,1.76-1.79,2.63
		c-0.61,0.88-1.49,1.66-1.85,2.48l-1.07,1.34c-0.82,0.49-1.57,1.43-2.43,2.14c-0.61,0.5-2.12,1.51-2.33,2.08
		c-0.86,0.32-0.56,0.18-0.89,0.62c-0.91,0.32-3.86,2.14-5.24,2.87c-5.46,2.04-7.49,2.62-14.01,2.33c-1.63-0.32-7.11-1.85-7.71-1.85
		c-0.05-0.05-0.14-0.2-0.17-0.14l-5.83-3.24l-0.32-0.2l-4.9-4.18c-0.22-0.74-0.5-1.02-1.14-1.47c-0.38-0.71-3.44-4.04-5.55-8.02
		c-0.52-0.98-1.01-2.17-1.57-3.07c-0.45-1.21-1.76-4.97-2.25-5.81c-0.51-0.88-0.94-1.28-1.51-2.36c-0.44-0.83-0.76-2.1-1.3-2.52
		c-0.89-3.26-1.89-3.39-1.73-7.72c0.26-1.13,0.82-2.29,0.98-3.17c0.93-0.49,1.34-0.88,1.42-2.08c0.08-1.26,0.03-2.83,0.05-4.13
		l-0.03-4.8l0.76-5.92c0.25-1.84,0.58-3.76,1.04-5.53c0.36-1.39,1.48-4.32,1.49-5.38c0.34-0.28,3.24-5.51,3.43-5.97
		c0.48,0.16,0.17,0.1,0.14-0.31c1.3-0.85,1.59-1.54,2.56-2.51c0.7-0.7,2.29-1.68,2.77-2.56l0.39-0.04c0.92-0.49,1.68-1.04,2.63-1.53
		c0.7-0.36,2.3-0.96,2.67-1.25c2.44-0.6,4.35-1.37,7-1.77C87.44,22.46,92.61,22.17,93.5,21.9 M124.67,77.25
		c-0.09,0.97-0.38,1.66-1.19,1.78c-0.23,0.75-0.44,1.3-0.69,2.11c-0.09,0.29-0.23,0.8-0.34,1.05c-0.44,0.98-0.18,0.42-0.48,0.78
		c0.01,1.16-1.43,4.23-2.08,5.15c-0.55,1.29-1.3,3.09-2.4,3.77c-0.13,0.76,0.21,0.09-0.37,0.98c-0.55,0.85-0.11,0.34-0.59,0.51
		c-0.83,1.77-3.21,4.22-4.69,5.24c-0.1,0.79,0.06,0.33-0.53,0.43l-2.24,2.04c-0.77,0.54-1.53,1.06-2.51,1.46
		c-1.13,1.06-3.53,1.88-5.42,2.29c-5.22,1.88-12.36,0.46-16.65-2.07c-0.99-0.49-1.7-0.93-2.6-1.54c-0.46-0.31-0.72-0.46-1.33-0.91
		c-0.64-0.48-0.66-0.23-0.74-0.87c-0.56-0.3-0.33-0.12-0.7-0.41c-0.41-0.32-0.16-0.14-0.44-0.54c-0.47-0.15,0,0.07-0.48-0.23
		c-1.03-0.66-3.53-3.56-3.72-4.49c-0.9-0.47-0.8-0.62-1.24-1.52c-0.83-0.45-2.13-3.09-2.59-4.17l-2.46-5.59l-0.13-1.04l-0.26-0.33
		c-0.57-0.95-0.17-0.98-1.08-1.99c-0.79-0.88-0.75-0.84-1.28-2.08c-0.65-0.98-1.96-4.22-2.22-5.53c-0.1-2.02,0.27-2.42,1.49-3.23
		c0.92-0.61,0.13-0.55,1.45-0.46c0.36,0.03,1.39,0.23,1.77,0.32l3.63,0.3c0.83-0.94,3.29-6.8,3.9-8.59l3.56,0.79
		c1.37,0.23,5.1,0.64,5.93,1.35c1.63-0.1,3.37,0.39,5.01,0.68l5.55,0.75l5.6,0.52l5.76,0.15l5.28-0.42l2.85-0.56l1.21,3.18
		c0.18,0.19,1.21,2.32,1.43,2.68c1.74,0.21,3.74-0.73,5.47-1.13l2.07-0.51c0.89,1.89,2.04,0.51,2.08,3.39
		C127.15,72.29,125.68,76.55,124.67,77.25z"/>
	<path class="st38" d="M40.36,65.83l-1.18,0.51c-0.73,0.62-1.61,1.08-2.23,1.55c-0.86,0.65-1.01,1.38-1.82,1.49
		c-0.33,0.66-1.17,2.2-1.8,2.64c-0.08,1.26-0.73,3.02-1.04,4.53l0.4,6.02l0.68,5.36c0.99,1.24,1.2,4.2,1.68,5.81
		c0.57,1.92,1.27,3.67,1.81,5.53l2.21,5.4l1.65,3.27l1.11,2.26c0.6,0.76,1,1.81,1.59,2.76c0.67,1.08,1.3,1.78,1.65,2.92
		c0.58,0.4,0.55,0.43,0.72,1.18c0.91,0.71,2.85,3.61,3.1,4.36c0.71,0.27,2.1,2.24,2.56,3.01c0.81,0.65,0.55,0.66,1.06,1.25
		c0.39,0.47,0.24,0.21,0.56,0.54c0.31,0.32,0.14,0.12,0.39,0.47c0.59,0.41,0.91,0.86,1.59,1.41c0.54,0.44,1.36,0.92,1.86,1.36
		c2.69,0.72,2.62,1.02,5.82,0.66c0.79-0.31,1.61-0.52,2.44-0.92c0.45-0.22,0.9-0.48,1.26-0.68c0.86-0.47,0.52-0.41,1.29-0.53
		c0.56-0.93,0.59-0.7,1.54-1.32c0.62-0.7,1.28-1.08,2.15-1.99c0.68-0.72,1.23-1.37,2.05-1.86c0.35-0.68,0.16-0.35,0.84-1.03
		c0.12-0.12,0.33-0.31,0.45-0.42c0.37-0.33,0.07-0.13,0.53-0.42c0.27-1.13,0.18-0.16,0.52-1.01c0.31-0.76,0.25-0.46,0.18-1.43
		c-0.06-0.82-0.35-1.98-0.59-2.68c-0.56-2.15-1.65-4.07-2.88-5.46c-1.64-1.85-2.11-1.98-4.51-3.43c-2.35,0.09-3.62,1.81-5.18,2.1
		l-0.76,0.77c-0.23,0.22-0.37,0.35-0.56,0.53c-0.51,0.49-0.75,0.76-1.26,1.16c-0.92-0.79-6.28-10.69-6.88-12.45
		c-0.64-0.77-1.76-2.97-1.8-4.06c-0.51-0.48-0.46-0.44-0.79-1.26c-0.6-1.08-1.93-4.07-1.97-5.41c-0.86-0.79-1.8-4.5-1.97-5.9
		c1.86-0.26,4-0.66,5.66-1.23c2.52-0.87,2.58-1.28,2.54-4.2l-0.44-5.23c-0.55-0.64-0.67-2.04-0.95-2.92
		c-0.38-1.19-0.69-1.67-1.18-2.72c-0.59-0.67-0.67-0.42-0.74-1.14c-1.99-0.74-3.48-0.77-5.83-0.49L40.36,65.83z"/>
	<path class="st38" d="M81.25,72.02c1.51,0,2.74,1.18,2.74,2.63c0,1.45-1.23,2.63-2.74,2.63c-1.51,0-2.74-1.18-2.74-2.63
		C78.52,73.2,79.74,72.02,81.25,72.02"/>
	<path class="st38" d="M108.63,72.13c1.51,0,2.74,1.18,2.74,2.63s-1.23,2.63-2.74,2.63c-1.51,0-2.74-1.18-2.74-2.63
		S107.12,72.13,108.63,72.13"/>
	<rect x="86.41" y="90.03" class="st38" width="17.27" height="5.16"/>
</g>
</svg>
