<?xml version="1.0" encoding="utf-8"?>
<!-- Generator: Adobe Illustrator 23.1.0, SVG Export Plug-In . SVG Version: 6.00 Build 0)  -->
<svg version="1.1" id="Слой_1" xmlns="http://www.w3.org/2000/svg" xmlns:xlink="http://www.w3.org/1999/xlink" x="0px" y="0px"
	 viewBox="0 0 185.09 185.24" style="enable-background:new 0 0 185.09 185.24;" xml:space="preserve">
<style type="text/css">
	.st0{fill-rule:evenodd;clip-rule:evenodd;fill:#F8F8D8;}
	.st1{fill-rule:evenodd;clip-rule:evenodd;fill:#E4E6D2;}
	.st2{fill-rule:evenodd;clip-rule:evenodd;fill:#F8FAE6;}
	.st3{fill-rule:evenodd;clip-rule:evenodd;fill:#BDBEC0;}
	.st4{clip-path:url(#SVGID_2_);}
	.st5{clip-path:url(#SVGID_6_);}
	.st6{clip-path:url(#SVGID_10_);}
	.st7{clip-path:url(#SVGID_12_);}
	.st8{clip-path:url(#SVGID_16_);}
	.st9{clip-path:url(#SVGID_20_);}
	.st10{clip-path:url(#SVGID_24_);}
	.st11{clip-path:url(#SVGID_28_);}
	.st12{clip-path:url(#SVGID_32_);}
	.st13{clip-path:url(#SVGID_36_);}
	.st14{fill-rule:evenodd;clip-rule:evenodd;fill:#313562;}
	.st15{fill-rule:evenodd;clip-rule:evenodd;fill:#FF7100;}
	.st16{fill-rule:evenodd;clip-rule:evenodd;fill:#3F59C4;}
	.st17{fill-rule:evenodd;clip-rule:evenodd;fill:#D36528;}
	.st18{fill:none;stroke:#00000B;stroke-width:0.5669;stroke-miterlimit:22.9256;}
	.st19{clip-path:url(#SVGID_40_);}
	.st20{clip-path:url(#SVGID_42_);}
	.st21{fill-rule:evenodd;clip-rule:evenodd;fill:#4E579D;}
	.st22{fill-rule:evenodd;clip-rule:evenodd;fill:#373B6A;}
	.st23{fill-rule:evenodd;clip-rule:evenodd;fill:#4A5395;}
	.st24{fill-rule:evenodd;clip-rule:evenodd;fill:#4C5599;}
	.st25{fill-rule:evenodd;clip-rule:evenodd;fill:#14142A;}
	.st26{fill:#4E579D;}
	.st27{fill-rule:evenodd;clip-rule:evenodd;fill:#EE7100;}
	.st28{fill-rule:evenodd;clip-rule:evenodd;fill:none;}
	.st29{clip-path:url(#SVGID_46_);}
	.st30{clip-path:url(#SVGID_50_);}
	.st31{clip-path:url(#SVGID_54_);}
	.st32{clip-path:url(#SVGID_58_);}
	.st33{clip-path:url(#SVGID_62_);}
	.st34{clip-path:url(#SVGID_66_);}
	.st35{clip-path:url(#SVGID_70_);}
	.st36{clip-path:url(#SVGID_74_);}
	.st37{clip-path:url(#SVGID_76_);}
	.st38{fill-rule:evenodd;clip-rule:evenodd;fill:#FFFFFF;}
	.st39{fill:none;stroke:#FFFFFF;stroke-width:0.5669;stroke-miterlimit:22.9256;}
	.st40{fill:#313562;}
	.st41{clip-path:url(#SVGID_80_);}
	.st42{clip-path:url(#SVGID_82_);}
	.st43{fill:none;stroke:#FF7100;stroke-miterlimit:10;}
	.st44{fill-rule:evenodd;clip-rule:evenodd;fill:url(#SVGID_85_);}
</style>
<g>
	<path class="st38" d="M14.82,49.25v3.11l0.8,1.86c0.18,0.44,0.6,1.25,0.9,1.66c1.4,1.94,1.26,0.97,1.24,4.25l0,21
		c0.02,5.51-0.29,1.53-2.38,6.91l-0.55,1.13v3.66l0.76,1.87c0.8,1.98,1.9,3.22,3.76,4.43c1.57,1.02,3.16,0.38,3.58-0.93
		c0.32-0.99,0.17-3.97,0.18-5.18l2.63-0.09c-0.02,2.71-0.72,7.35,2.53,6.75c3.43-0.63,7.38-6.82,4.86-12.53
		c-1.61-3.66-2.51-0.63-2.11-7.53c1.16,0.05,1.23,0.93,4.79,1.49c4.05,0.64,11.69,2.64,16.19,3.57c7.77,1.6,12.25,3.32,16.97-6.68
		c0.4,0.32,0.15,0.04,0.45,0.48l4.39,9.99c1.06,2.57,4.13,8.55,4.55,10.85c-0.69,0.91-8.32,7.21-9.77,8.45
		c-2.95,2.51-7.27,5.31-7.58,10.76c-0.17,2.95,3.84,17.84,5.08,22.23c0.52,1.85,1.64,5.66,1.81,7.52c-2.9,0.93-6.12,2.26-8.97,3.33
		c-2.5,0.94-5.33,4.97-2.75,7.77c2.37,2.56,5.5,2.43,9.62,2.54c4.12,0.11,8.16,0.17,12.27,0.34c9.57,0.39,12.85-7.58,11.28-12.77
		c-0.85-2.81-6.18-17.1-6.08-18.6c-0.65-0.69-0.78-1.68-1.09-2.63c-1.41-4.27-1.61-1.99,4.08-7.67c0.69-0.69,0.96-0.78,1.79-1.54
		l6.92-6.14c1.05,1.82,1.4,7.91,2.34,10.44c0.44,1.17,1.12,2.02,1.55,2.99c0.04,0.03,0.1,0.03,0.11,0.1l3.03,2.47l28.57,12.66
		c0.43,4.66-1.12,12.09,1.3,15.37c3.3,4.48,8.55,1,9.88-2.62l6.79-18.36c0.19-1.22,0.13-2.81-0.13-4.02c-0.29-1.32-1-2.14-1.1-3.14
		c-1.2-0.93-1.75-2.07-3.34-3.16c-1.31-0.9-2.93-1.26-4.5-1.92l-18.01-8.09c-5.61-2.54-3.83-1.12-5.9-7.18
		c-1.78-5.21-4.68-15.61-6.4-19.7c-1.29-3.07-2.91-5.97-4.16-8.89c-0.81-1.89-3.8-7.64-3.99-8.84c2.75-0.1,4.9,2.15,7.43,4.36
		l13.04,11.03c2.78,2.4,3.63,3.41,8.58,3.43c-1.12,1.53-3.37,3.5-4.83,4.94c-0.89,0.88-4.41,3.92-4.5,5.34
		c-0.11,1.78,3.4,4.57,4.34,5.49l14.72,14.72c1.01,1.01,3.86,4.42,5.38,4.44c2.14,0.03,3.61-3.39,5.75-4.44l0.14-0.3
		c0.12-0.19,0.02-0.09,0.3-0.42c0.22-0.27,0.51-0.5,0.77-0.76l23-23.14v-1.33c-1.44-2.01-6.93-7.26-9-9.34
		c-3.12-3.13-6.1-6.1-9.23-9.21c-6.13-6.06-5.57-7.14-10.15-2.58c-1.61,1.61-3,3.02-4.61,4.61c-0.96,0.95-3.58,3.94-4.65,4.35
		c0.05-3.97-0.86-5.93-2.96-7.83l-17.2-14.3c-1.72-1.41-3.91-3.59-5.9-4.6c-1.31-0.67-13.87-3.71-16.56-4.43
		c-1.61-0.43-7.33-1.44-8.22-2.3c-1-0.01-3.51-0.97-5.48-1.15c-5.43-0.47-10.2,2.1-13.33,5.87c-2.25,2.7-9.5,13.2-11.25,14.69
		c-4.74-0.51-16.16-4.38-19.21-4.65c-3.66-0.32-4.43,1.32-6.37,1.52c0.01-1.71,0.01-3.44,0-5.15c-0.02-2.84-0.05-2.2,1.22-3.88
		c1.45-1.92,2.16-4.9,1.46-7.79c-0.57-2.36-2.35-4.82-4.34-5.88c-4.4-2.32-3.57,4.24-3.58,5.81L23.1,48
		c-0.01-1.38,0.2-4.25-0.43-5.22c-0.81-1.25-2.7-0.86-3.77-0.08C15.37,45.3,15.76,47.36,14.82,49.25"/>
	<path class="st38" d="M50.55,31.55c-3.77,0.53-3.62,3.8,0.08,4.34c0.83,2.02,0.73,3.36,2,5.62c7.89,14.04,29.87,8.4,29.64-8.01
		c-0.19-13.42-16.22-20.63-26.35-11.63C51.18,26.09,51.9,29.23,50.55,31.55"/>
</g>
</svg>
