<?xml version="1.0" encoding="utf-8"?>
<!-- Generator: Adobe Illustrator 23.1.0, SVG Export Plug-In . SVG Version: 6.00 Build 0)  -->
<svg version="1.1" id="Слой_1" xmlns="http://www.w3.org/2000/svg" xmlns:xlink="http://www.w3.org/1999/xlink" x="0px" y="0px"
	 viewBox="0 0 185.09 185.24" style="enable-background:new 0 0 185.09 185.24;" xml:space="preserve">
<style type="text/css">
	.st0{fill-rule:evenodd;clip-rule:evenodd;fill:#F8F8D8;}
	.st1{fill-rule:evenodd;clip-rule:evenodd;fill:#E4E6D2;}
	.st2{fill-rule:evenodd;clip-rule:evenodd;fill:#F8FAE6;}
	.st3{fill-rule:evenodd;clip-rule:evenodd;fill:#BDBEC0;}
	.st4{clip-path:url(#SVGID_2_);}
	.st5{clip-path:url(#SVGID_6_);}
	.st6{clip-path:url(#SVGID_10_);}
	.st7{clip-path:url(#SVGID_12_);}
	.st8{clip-path:url(#SVGID_16_);}
	.st9{clip-path:url(#SVGID_20_);}
	.st10{clip-path:url(#SVGID_24_);}
	.st11{clip-path:url(#SVGID_28_);}
	.st12{clip-path:url(#SVGID_32_);}
	.st13{clip-path:url(#SVGID_36_);}
	.st14{fill-rule:evenodd;clip-rule:evenodd;fill:#313562;}
	.st15{fill-rule:evenodd;clip-rule:evenodd;fill:#FF7100;}
	.st16{fill-rule:evenodd;clip-rule:evenodd;fill:#3F59C4;}
	.st17{fill-rule:evenodd;clip-rule:evenodd;fill:#D36528;}
	.st18{fill:none;stroke:#00000B;stroke-width:0.5669;stroke-miterlimit:22.9256;}
	.st19{clip-path:url(#SVGID_40_);}
	.st20{clip-path:url(#SVGID_42_);}
	.st21{fill-rule:evenodd;clip-rule:evenodd;fill:#4E579D;}
	.st22{fill-rule:evenodd;clip-rule:evenodd;fill:#373B6A;}
	.st23{fill-rule:evenodd;clip-rule:evenodd;fill:#4A5395;}
	.st24{fill-rule:evenodd;clip-rule:evenodd;fill:#4C5599;}
	.st25{fill-rule:evenodd;clip-rule:evenodd;fill:#14142A;}
	.st26{fill:#4E579D;}
	.st27{fill-rule:evenodd;clip-rule:evenodd;fill:#EE7100;}
	.st28{fill-rule:evenodd;clip-rule:evenodd;fill:none;}
	.st29{clip-path:url(#SVGID_46_);}
	.st30{clip-path:url(#SVGID_50_);}
	.st31{clip-path:url(#SVGID_54_);}
	.st32{clip-path:url(#SVGID_58_);}
	.st33{clip-path:url(#SVGID_62_);}
	.st34{clip-path:url(#SVGID_66_);}
	.st35{clip-path:url(#SVGID_70_);}
	.st36{clip-path:url(#SVGID_74_);}
	.st37{clip-path:url(#SVGID_76_);}
	.st38{fill-rule:evenodd;clip-rule:evenodd;fill:#FFFFFF;}
	.st39{fill:none;stroke:#FFFFFF;stroke-width:0.5669;stroke-miterlimit:22.9256;}
	.st40{fill:#313562;}
	.st41{clip-path:url(#SVGID_80_);}
	.st42{clip-path:url(#SVGID_82_);}
	.st43{fill:none;stroke:#FF7100;stroke-miterlimit:10;}
	.st44{fill-rule:evenodd;clip-rule:evenodd;fill:url(#SVGID_85_);}
</style>
<g>
	<path class="st38" d="M86.88,57.37c0,4.2,0.25,7.18,0.95,11.19c0.08,0.44,0.32,2.48,0.68,2.79l8.78,5.19
		c3.86,2.21,7.23,3.83,9.74,7.59c2.34,3.51,2.94,7.33,2.07,11.58c-0.23,1.15-0.9,2.71-0.92,2.81c-0.03,0.21-0.07-0.02,0.01,0.15
		l5.29,1.03c8.38,1.73,17.26,4.48,25.74,1.66c2.35-0.78,4.52-1.91,6.31-3.58c0.25-0.23,0.36-0.27,0.61-0.51
		c1.12-1.08,2.08-2.42,2.91-3.72c1.02-1.58,2.19-4.42,2.71-6.16c1.05-3.54,1.32-5.52,1.85-9.07l0.57-6.16
		c0.07-2.8,0.3-5.54,0.3-8.47c0-2.95,0.1-5.73,0.1-8.77c-0.72,0.48-20.09,20.16-20.38,20.31c-0.56,0.3-3.53-0.57-4.08-0.75
		c-2.69-0.85-5.22-2.28-7.39-4.03l-2.08-1.79c-0.25-0.21-0.34-0.42-0.56-0.66l-1.21-1.34c-0.99-1.23-1.83-2.38-2.6-3.82
		c-1.06-1.96-2.48-5.42-2.48-7.72c0-0.35,4.69-4.85,5.02-5.18c1.72-1.72,3.37-3.37,5.1-5.1l7.65-7.65c0.45-0.45,0.82-0.82,1.27-1.27
		c0.36-0.36,1.12-0.92,1.25-1.4c-11.66,0-23.02,0.32-31.93,3.05l-3.18,1.2c-0.53,0.25-0.94,0.42-1.46,0.68
		c-4.35,2.18-7.79,5.76-9.38,10.41C87.45,51.89,86.88,54.72,86.88,57.37"/>
	<path class="st38" d="M41.4,83.28c-3.21,0-13.78-4.39-17.12-5.73l-5.42-2.23v47.62c0.37,0.18,1.17,0.29,1.63,0.41
		c3.35,0.81,5.12,1.16,8.47,1.83c4,0.8,7.52,0.6,10.42-2.31l17.13-16.01c1.21-1.07,5.03-4.76,6.11-5.62c0.24-0.2,0.4-0.38,0.62-0.6
		l6.83-6.22c3.04-2.71,6.91-2.36,10.31-0.46l8.46,5c2.57,1.54,3.13,1.87,6.09,1.87c1.11,0,2.35-0.46,3.13-0.85
		c5.86-2.93,6.01-10.54,1.78-13.95c-1.38-1.11-7.86-4.76-9.79-5.92l-3.91-2.31c-0.66-0.39-1.29-0.76-1.92-1.14
		c-0.66-0.4-1.3-0.78-2-1.16c-2.46-1.34-5.35-3.17-7.95-4.59c-2.77-1.51-5.43-3.34-9.38-1.76c-2.48,0.99-5.21,3.46-7.31,5.23
		c-1.83,1.54-5.4,4.17-7.25,5.29C48.07,81.04,44.88,83.28,41.4,83.28"/>
	<path class="st38" d="M91.37,113.77c-1-0.67-3.64-4.93-8.58-3.28c-1.14,0.38-1.9,0.85-2.66,1.62c-1.68,1.69-2.71,2.94-2.63,5.84
		c0.07,2.29,1.08,3.26,1.94,4.38c0.32,0.42,0.75,0.72,1.02,1.12c-0.34-0.08-0.56-0.29-1.19-0.54c-6.13-2.39-12.46,4.91-8.8,10.63
		c0.41,0.64,1.42,1.63,1.63,1.94c-0.83-0.19-1.4-0.93-3.47-0.92c-2.83,0.01-4.12,0.98-5.89,2.88c-1.64,1.76-2.05,4.64-1.26,6.82
		c0.26,0.73,0.74,1.55,1.26,2.1c0.24,0.25,0.28,0.37,0.51,0.61c1.99,2.15,5.42,5.42,7.75,7.75c0.21,0.21,0.34,0.36,0.56,0.56
		c2.28,2.19,5.7,3.19,8.84,1.14c0.5-0.33,0.81-0.62,1.25-0.99l1.05-1.19c2.04-2.65,1.64-5.82,0-8.26c0.56,0.15,3.3,2.61,7.38,0.55
		c0.35-0.18,0.72-0.41,1-0.63c0.18-0.14,0.24-0.24,0.42-0.39c1.34-1.13,2.44-2.62,2.7-4.44c0.13-0.94,0.1-1.92-0.12-2.79
		c-0.33-1.29-0.86-1.84-0.98-2.29c0.7,0.47,0.67,0.77,2.14,1.43c2.2,0.99,5.35,0.55,7.06-1.1c0.89-0.85,1.83-1.54,2.44-3.07
		c0.99-2.48,0.6-4.98-0.98-7.01c-0.29-0.38-0.63-0.59-0.88-0.96c0.52,0.12,3.44,2.2,7,0.27c1.74-0.94,3.53-2.87,4.04-5.04
		c0.62-2.65-0.31-4.84-2.09-6.63l-9.02-9.02c-2.33-2.33-5.08-3.1-8.27-1.59c-2.26,1.07-4.53,4.14-4.3,7.01
		c0.05,0.66,0.22,1.34,0.39,1.86C90.92,112.99,91.29,113.48,91.37,113.77 M91.47,113.87l-0.1-0.1L91.47,113.87z M80.56,123.56
		l-0.1-0.1L80.56,123.56z M102.79,125.19l-0.1-0.1L102.79,125.19z M102.89,125.29l-0.1-0.1L102.89,125.29z M72.2,135.59l-0.1-0.1
		L72.2,135.59z"/>
	<path class="st38" d="M18.86,156.19c0,1.86,0.79,4.25,1.51,5.42c0.45,0.75,0.82,1.44,1.37,2.1c0.27,0.33,0.49,0.65,0.77,0.97
		l1.06,1.08c0.09,0.08,0.12,0.11,0.21,0.19l1.38,1.27c1.78,1.55,4.79,3.24,7.26,3.24c2.43,0,3.64-0.23,5.78-1.15
		c0.94-0.4,1.77-0.82,2.58-1.4l3.06-2.35c0.29-0.23,0.46-0.41,0.74-0.69c1.37-1.38,2.69-2.72,3.89-4.27
		c0.77-0.99,1.73-1.89,2.51-2.9c0.75-0.98,1.74-1.91,2.51-2.9c0.82-1.06,1.73-1.91,2.55-2.96c0.25-0.32,0.38-0.41,0.61-0.71
		c0.25-0.32,0.47-0.49,0.65-0.77c-0.77-1.46-1.13-1.38-2.04-3.67c-1.77-4.47-0.78-10.15,2.22-13.49l1.27-1.38
		c0.66-0.67,1.41-1.29,2.21-1.76c0.44-0.26,1.21-0.79,1.74-0.91c0-2.65,1.13-5.43,2.61-7.39c1.17-1.55,3.69-4.14,5.45-4.55
		c0-1.88,0.51-3.73,1.22-5.3c1.63-3.62,4.79-6.5,8.55-7.76c0.6-0.2,2.01-0.58,2.77-0.6c-0.17-0.23-0.65-0.47-0.92-0.61
		c-1.86-1-5.1-3.35-6.93-3.77c-0.43,0.65-1.18,1.17-1.76,1.71c-0.21,0.19-0.25,0.19-0.46,0.36l-7.91,7.19
		c-1.27,1.26-4.48,3.84-5.66,5.05l-6.58,5.86c-0.32,0.32-0.57,0.47-0.92,0.82l-7.1,6.26c-1.8,1.45-3.49,3.06-5.32,4.47l-6.63,5.71
		c-0.22,0.17-0.27,0.24-0.49,0.43l-2.85,2.45c-1.41,1.35-4.04,3.2-5.2,4.59c-0.17,0.2-0.17,0.25-0.36,0.46
		C21.43,147.57,18.86,151.17,18.86,156.19 M30.49,153.54c0-0.72,0.22-1.56,0.47-2.08c0.49-1,0.82-1.39,1.7-2.08
		c1.22-0.97,3.21-1.18,4.85-0.53c0.53,0.21,1.01,0.57,1.43,0.92c0.44,0.38,0.75,0.79,1.03,1.31c1.45,2.67,0.31,5.92-2.39,7.1
		c-1.38,0.6-2.68,0.53-4,0c-1.21-0.48-2.02-1.35-2.59-2.51C30.73,155.15,30.49,154.33,30.49,153.54z"/>
</g>
</svg>
