<?xml version="1.0" encoding="utf-8"?>
<!-- Generator: Adobe Illustrator 23.1.0, SVG Export Plug-In . SVG Version: 6.00 Build 0)  -->
<svg version="1.1" id="Слой_1" xmlns="http://www.w3.org/2000/svg" xmlns:xlink="http://www.w3.org/1999/xlink" x="0px" y="0px"
	 viewBox="0 0 185.09 185.24" style="enable-background:new 0 0 185.09 185.24;" xml:space="preserve">
<style type="text/css">
	.st0{fill-rule:evenodd;clip-rule:evenodd;fill:#F8F8D8;}
	.st1{fill-rule:evenodd;clip-rule:evenodd;fill:#E4E6D2;}
	.st2{fill-rule:evenodd;clip-rule:evenodd;fill:#F8FAE6;}
	.st3{fill-rule:evenodd;clip-rule:evenodd;fill:#BDBEC0;}
	.st4{clip-path:url(#SVGID_2_);}
	.st5{clip-path:url(#SVGID_6_);}
	.st6{clip-path:url(#SVGID_10_);}
	.st7{clip-path:url(#SVGID_12_);}
	.st8{clip-path:url(#SVGID_16_);}
	.st9{clip-path:url(#SVGID_20_);}
	.st10{clip-path:url(#SVGID_24_);}
	.st11{clip-path:url(#SVGID_28_);}
	.st12{clip-path:url(#SVGID_32_);}
	.st13{clip-path:url(#SVGID_36_);}
	.st14{fill-rule:evenodd;clip-rule:evenodd;fill:#313562;}
	.st15{fill-rule:evenodd;clip-rule:evenodd;fill:#FF7100;}
	.st16{fill-rule:evenodd;clip-rule:evenodd;fill:#3F59C4;}
	.st17{fill-rule:evenodd;clip-rule:evenodd;fill:#D36528;}
	.st18{fill:none;stroke:#00000B;stroke-width:0.5669;stroke-miterlimit:22.9256;}
	.st19{clip-path:url(#SVGID_40_);}
	.st20{clip-path:url(#SVGID_42_);}
	.st21{fill-rule:evenodd;clip-rule:evenodd;fill:#4E579D;}
	.st22{fill-rule:evenodd;clip-rule:evenodd;fill:#373B6A;}
	.st23{fill-rule:evenodd;clip-rule:evenodd;fill:#4A5395;}
	.st24{fill-rule:evenodd;clip-rule:evenodd;fill:#4C5599;}
	.st25{fill-rule:evenodd;clip-rule:evenodd;fill:#14142A;}
	.st26{fill:#4E579D;}
	.st27{fill-rule:evenodd;clip-rule:evenodd;fill:#EE7100;}
	.st28{fill-rule:evenodd;clip-rule:evenodd;fill:none;}
	.st29{clip-path:url(#SVGID_46_);}
	.st30{clip-path:url(#SVGID_50_);}
	.st31{clip-path:url(#SVGID_54_);}
	.st32{clip-path:url(#SVGID_58_);}
	.st33{clip-path:url(#SVGID_62_);}
	.st34{clip-path:url(#SVGID_66_);}
	.st35{clip-path:url(#SVGID_70_);}
	.st36{clip-path:url(#SVGID_74_);}
	.st37{clip-path:url(#SVGID_76_);}
	.st38{fill-rule:evenodd;clip-rule:evenodd;fill:#FFFFFF;}
	.st39{fill:none;stroke:#FFFFFF;stroke-width:0.5669;stroke-miterlimit:22.9256;}
	.st40{fill:#313562;}
	.st41{clip-path:url(#SVGID_80_);}
	.st42{clip-path:url(#SVGID_82_);}
	.st43{fill:none;stroke:#FF7100;stroke-miterlimit:10;}
	.st44{fill-rule:evenodd;clip-rule:evenodd;fill:url(#SVGID_85_);}
</style>
<g>
	<path class="st38" d="M76.56,126.55c0.39-0.58,0.75-1.05,1.16-1.66c2.31-3.37,1.06-8.22-2.8-9.56c-2.46-0.85-2.94-0.22-4.95,0.25
		c0.26-1.12,1-1.76,1.26-3.29c0.41-2.37-0.83-4.77-2.65-6.14c-0.89-0.67-2.08-1.08-3.63-1.08c-1.81,0-2.29,0.49-3.29,1.26
		c-1.86,1.42-4.96,5.51-6.58,7.37c0.02-0.89,0.36-1.37,0.32-2.35c-0.03-0.78-0.27-1.54-0.52-2.16c-0.54-1.35-1.23-2.2-2.37-2.96
		c-1.05-0.7-2.41-1.24-4.29-0.96c-1.79,0.26-2.53,1.43-3.64,1.69c-1.5-1.01-2.85-5.09-4.34-6.62c-0.6-0.62-5.78-4.73-5.84-5.29
		c-0.03-0.28,1.69-3.1,1.95-3.54c0.74-1.24,1.34-2.33,2.08-3.56c0.38-0.63,0.68-1.14,1.04-1.78l9.3-15.92
		c0.39-0.65,0.66-1.11,1.06-1.76c0.28-0.47,0.92-1.37,1.03-1.79c0.9,0.07,2.89,1.51,3.81,1.98c3.97,2.02,4.04,1.99,8.84,2.91
		c1.6,0.31,3.69,0.39,5.21,0.74c0,1.06-0.63,1.65-1.16,2.45c-0.51,0.77-1,1.38-1.51,2.1c-1.55,2.19-7.16,9.52-4.67,12.19
		c0.62,0.66,1.41,1.15,2.49,1.27c4.94,0.52,10.24-2.34,13.18-4.96c0.38-0.34,0.5-0.51,0.9-0.82c0.36-0.28,0.65-0.53,0.98-0.9
		c0.66-0.76,3.04-3.33,3.25-4.11c1.83,0,3.59,0.04,5.15,0.33c2.36,0.44,9.14,4.12,11.46,5.46c0.57,0.33,1.17,0.62,1.72,0.94
		l5.37,3.09c6.96,4.16,13.64,8.7,20.12,13.57c0.58,0.44,1.07,0.76,1.64,1.19c2.19,1.65,6.2,4.38,7.73,6.38
		c1.14,1.49,0.81,2.72-0.07,4.14c-0.67,1.07-1.85,1.88-3.75,1.72c-2.56-0.21-16.35-8.7-18.39-9.82c-2.48-1.36-4.71-2.76-7.26-4.03
		c-2.29-1.14-4.6,1.27-3.03,3.5c0.68,0.96,5.54,3.5,6.95,4.34l16.09,9.3c0,3.37-1.7,5.28-5.17,5.18c-1.91-0.05-8.56-3.9-10.46-5.06
		c-3.26-1.98-6.69-3.69-10.11-5.4c-1.19-0.59-2.37-1.49-3.6-0.41c-1.03,0.9-1.35,2.6-0.12,3.5c3.6,2.61,9.16,5.44,13.06,7.62
		l4.84,2.84c0.58,0.36,1.01,0.78,1.53,1.13c0,4.38-4.68,4.54-7.73,3.34c-1.06-0.42-2-0.89-2.95-1.28l-7.07-3.27
		c-1.93-0.83-5.63-2.98-7.62-2.7c-1.48,0.21-2.21,3.04-0.9,4.01c1.39,1.04,9,4.5,11.12,5.49c0.92,0.43,3.52,1.5,4.02,2.25
		c-0.62,0.93-2.72,2.17-3.99,2.6c-3.13,1.06-13.46-1.36-16.38-2.91c0.43-1.84,1.27-1.06,1.25-4.23c-0.01-2.42-0.07-2.86-1.16-4.33
		c-0.66-0.88-2.14-1.79-3.45-2.04C78.84,125.58,78.36,126.13,76.56,126.55 M75.43,145.2h-2.9c-0.1-0.02-0.2-0.04-0.3-0.06
		c-0.82-0.18-1.56-0.78-2.1-1.19c-1.39-1.04-1.98-2.71-2.15-4.44c-0.07-0.75,0.26-2,0.28-2.77c-0.45,0.3-1.06,0.89-1.54,1.28
		c-0.49,0.39-1.15,0.76-1.84,0.98c-1.92,0.61-3.28,0.17-4.61-0.53c-1.15-0.6-2.16-1.67-2.71-2.93c-1.05-2.43-0.37-3.29-0.26-4.59
		c-0.56,0.13-4.85,3.22-8.5-0.58c-0.85-0.89-1.64-2.46-1.69-4.11c-0.06-2.06,0.58-3.1,1.26-4.39c-0.66,0.01-0.6,0.11-1.17,0.24
		c-0.33,0.08-0.96,0.18-1.2,0.21c-2.42,0.26-4.34-0.89-5.65-2.78c-2.86-4.11,0.85-7.85,0.81-8.17l-4.01-6.65
		c-0.97-1.39-4.68-4.72-5.55-4.95c-0.44,0.33-0.53,0.8-0.85,1.34c-2.83,4.79-3.11,4.08-8.46,0.92c-1.85-1.1-3.5-2.05-5.29-3.17
		c-0.56-0.35-2.13-1.32-2.41-1.82c-0.15-0.27-0.22-0.54-0.22-0.81v-0.09c0.02-0.78,0.52-1.53,0.84-2.11l16.06-27.97
		c0.27-0.46,0.5-0.79,0.76-1.28c0.52-0.95,1-1.64,1.51-2.56l7.03-11.77c0.29-0.45,0.55-0.77,1.06-0.98c1.42-0.59,4.61,1.54,5.88,2.3
		c0.49,0.29,0.84,0.43,1.32,0.72l2.64,1.59c0.47,0.28,0.83,0.48,1.27,0.76c0.63,0.4,1.94,1.19,2.32,1.75
		c1.63,2.39-1.38,4.22-1.51,5.74c0.56,0.13,1.3,0.67,1.83,0.99c0.61,0.36,1.07,0.62,1.68,0.98c4.09,2.42,8.24,2.52,13.12,3.34
		c2.81,0.47,2,0.49,3.78-1.03c1.95-1.66,5.61-2.29,8.24-2.73c1.37-0.23,3.41-0.53,4.88-0.6c19.97-0.98,14.92-0.56,29.84,2.12
		c7.24,1.3,7.57-0.09,9.81-0.09c0.8,1.51,1.64,2.97,2.5,4.4l7.58,12.94c0.23,0.43,0.38,0.65,0.64,1.08l6.93,11.87
		c0.46,0.77,0.82,1.42,1.27,2.17c0.24,0.39,0.39,0.71,0.63,1.1c0.25,0.41,0.38,0.54,0.5,1.07c-0.35,0.52-0.52,0.5-0.98,0.9
		c-2.11,1.85-4.18,4.18-7.01,5.68c0.27,0.51,0.37,0.56,0.68,1.04c3.81,6.1,0.57,13.26-7.42,13.84c-1.38,0.1-1.27,0.67-1.53,1.76
		c-0.57,2.36-2.25,4.37-4.42,5.45c-2.84,1.42-4.51,0.86-5.05,1.53c-0.26,0.33-0.94,5.78-5.74,7.26c-3.41,1.05-3.89,0.06-5.31,1.28
		l-3.38,3.21c-4.34,3.88-10.59,3.18-15.76,1.89c-1.69-0.42-3.54-0.85-5.18-1.4l-4.88-1.55c-0.47,0.31-0.49,0.41-0.85,0.87
		C78.62,143.39,77.34,144.76,75.43,145.2z"/>
	<path class="st38" d="M126.71,57.61c0,1.49,7.91,14.25,10.03,18.18l2.6,4.45c0.33,0.56,0.55,0.97,0.86,1.49
		c0.58,0.97,1.15,1.97,1.72,2.98l1.74,2.96c1.93,3.19,5.04,8.79,7.02,11.78c0.68,1.02,3,5.17,4.23,5.17c0.91,0,8.88-4.76,10.37-5.77
		c3.43-2.32,3.74-1.6-0.51-8.96c-1.14-1.98-2.3-3.99-3.43-5.97c-1.14-1.97-2.17-3.9-3.37-5.88c-3.35-5.53-6.88-11.98-10.32-17.73
		l-5.23-8.72c-0.2-0.34-0.21-0.34-0.43-0.67c-0.21-0.32-0.27-0.49-0.47-0.79c-0.45-0.66-1.03-0.85-1.81-0.85h-0.01
		c-0.91,0-6.05,3.05-7.02,3.63C131.44,53.69,126.71,56.1,126.71,57.61"/>
</g>
</svg>
