<?xml version="1.0" encoding="utf-8"?>
<!-- Svg Vector Icons : http://www.onlinewebfonts.com/icon -->
<!DOCTYPE svg PUBLIC "-//W3C//DTD SVG 1.1//EN" "http://www.w3.org/Graphics/SVG/1.1/DTD/svg11.dtd">
<svg version="1.1" xmlns="http://www.w3.org/2000/svg" xmlns:xlink="http://www.w3.org/1999/xlink" x="0px" y="0px" viewBox="0 0 1000 1000" enable-background="new 0 0 1000 1000" xml:space="preserve">
<metadata> Svg Vector Icons : http://www.onlinewebfonts.com/icon </metadata>
<g><path d="M806.7,807.1c77.9-78.6,126.6-187.2,126.6-307.1c0-119.8-48.6-228.4-126.6-307.1c-78.5-78-187-126.7-306.7-126.7l0,0c-119.7,0-228.2,48.7-306.7,126.7l0,0C114.7,271.6,66.1,380.2,66.1,500l0,0l0,0l0,0c0,119.8,48.6,228.4,127.2,307.1c78.6,78.6,187,127.3,306.7,127.3l0,0l0,0C619.7,934.4,728.2,885.7,806.7,807.1L806.7,807.1z M846.6,153C935.1,242.3,990,364.6,990,500c0,135.4-54.9,258.4-143.4,347C757.5,935.6,635.3,990.5,500,990.5c-135.3,0-258.1-54.9-346.6-143.5C64.9,758.4,10,635.4,10,500c0-135.4,54.9-257.7,143.4-347C241.9,64.4,364.7,9.5,500,9.5l0,0C635.3,9.5,757.5,64.4,846.6,153L846.6,153z M414,237.9c5-5,11.8-8.1,19.9-8.1l0,0c3.7,0,7.5,0.6,10.6,1.9c3.7,1.9,6.9,3.7,9.4,6.2l0,0L673.9,480c2.5,3.1,4.4,5.6,6.2,9.4c1.2,3.1,1.9,6.8,1.9,10.6c0,3.7-0.6,7.5-1.9,11.2c-1.9,3.1-3.7,6.2-6.2,8.7L453.9,762.1l0,0c-2.5,3.1-5.6,5-9.4,6.2c-3.1,1.2-6.8,2.5-10.6,2.5c-8.1,0-15-3.7-19.9-8.7l0,0c-5-5-8.1-11.9-8.1-20c0-3.7,0.6-7.5,1.9-10.6c1.3-3.1,3.8-6.3,6.3-8.8L616,500L414,277.8c-2.5-2.5-5-5.6-6.3-8.7c-1.2-3.8-1.9-7.5-1.9-11.2C405.9,250.4,409,242.9,414,237.9L414,237.9z"/></g>
</svg>