<svg width="23" height="20" viewBox="0 0 23 20" fill="none" xmlns="http://www.w3.org/2000/svg">
<path d="M22.0417 0H11.5C10.9707 0 10.5417 0.429049 10.5417 0.958318V2.875H3.83332C3.30405 2.875 2.875 3.30405 2.875 3.83332V10.5416H0.958318C0.429049 10.5417 0 10.9707 0 11.5V22.0417C0 22.571 0.429049 23 0.958318 23H22.0416C22.5709 23 23 22.571 23 22.0417V0.958318C23 0.429049 22.571 0 22.0417 0ZM4.79168 4.79168H6.70836V6.70836H4.79168V4.79168ZM4.79168 8.625H6.70836V10.5417H4.79168V8.625ZM10.5417 21.0833H1.91668V12.4583H10.5417V21.0833ZM10.5417 10.5417H8.625V8.625H10.5417V10.5417ZM10.5417 6.70832H8.625V4.79164H10.5417V6.70832ZM21.0833 21.0833H12.4583V12.4583H21.0833V21.0833ZM21.0833 10.5417H12.4583V1.91668H21.0833V10.5417Z" fill="#002E62"/>
</svg>
