<?xml version="1.0"?>
<svg xmlns="http://www.w3.org/2000/svg" height="512px" viewBox="0 0 192 192" width="512px" class=""><g><g id="_29-building" data-name="29-building"><path d="m88 80h16v24h-16z" data-original="#000000" class="active-path" data-old_color="#000000" fill="#02135C"/><path d="m88 40h16v24h-16z" data-original="#000000" class="active-path" data-old_color="#000000" fill="#02135C"/><path d="m88 120h16v24h-16z" data-original="#000000" class="active-path" data-old_color="#000000" fill="#02135C"/><path d="m112 80h16v24h-16z" data-original="#000000" class="active-path" data-old_color="#000000" fill="#02135C"/><path d="m112 40h16v24h-16z" data-original="#000000" class="active-path" data-old_color="#000000" fill="#02135C"/><path d="m112 120h16v24h-16z" data-original="#000000" class="active-path" data-old_color="#000000" fill="#02135C"/><path d="m64 80h16v24h-16z" data-original="#000000" class="active-path" data-old_color="#000000" fill="#02135C"/><path d="m64 40h16v24h-16z" data-original="#000000" class="active-path" data-old_color="#000000" fill="#02135C"/><path d="m64 120h16v24h-16z" data-original="#000000" class="active-path" data-old_color="#000000" fill="#02135C"/><path d="m176 166.624a24.039 24.039 0 0 0 16-22.624c0-11.392-14.158-25.694-18.5-29.807a8 8 0 0 0 -11.006 0 99.127 99.127 0 0 0 -10.494 11.672v-101.865a8 8 0 0 0 -8-8h-96a8 8 0 0 0 -8 8v101.865a99.127 99.127 0 0 0 -10.5-11.672 8 8 0 0 0 -11.006 0c-4.336 4.113-18.494 18.415-18.494 29.807a24.039 24.039 0 0 0 16 22.624v9.376h-16v16h192v-16h-16zm-8-35.031c4.46 5.151 7.9 10.33 8 12.407a8 8 0 0 1 -16 .012c.107-2.094 3.545-7.273 8-12.419zm-8 35.031v9.376h-8v-14.131a24.015 24.015 0 0 0 8 4.755zm-136-35.031c4.46 5.151 7.9 10.33 8 12.407a8 8 0 0 1 -16 .012c.107-2.094 3.545-7.273 8-12.419zm8 35.031a24.015 24.015 0 0 0 8-4.755v14.131h-8zm72 9.376v-16h-16v16h-32v-144h80v144z" data-original="#000000" class="active-path" data-old_color="#000000" fill="#02135C"/></g></g> </svg>
