<?xml version="1.0"?>
<svg xmlns="http://www.w3.org/2000/svg" height="512px" viewBox="0 0 192 192" width="512px"><g><g id="_19-resell" data-name="19-resell"><path d="m147.351 102.51 9.3-13.02-56-40a8 8 0 0 0 -9.3 0l-56 40 9.3 13.02 11.349-8.11v33.6a8 8 0 0 0 8 8h64a8 8 0 0 0 8-8v-33.6zm-27.351 17.49h-16v-24h-16v24h-16v-37.026l24-17.143 24 17.143z" data-original="#000000" class="active-path" data-old_color="#000000" fill="#02135C"/><path d="m192 96a96.108 96.108 0 0 0 -96-96v16a79.989 79.989 0 0 1 66.111 125.034l-2.521-7.564-15.18 5.06 8 24a8 8 0 0 0 7.59 5.47h24v-16h-10.033a95.557 95.557 0 0 0 18.033-56z" data-original="#000000" class="active-path" data-old_color="#000000" fill="#02135C"/><path d="m16 96a79.2 79.2 0 0 1 13.877-45.07l2.533 7.6 15.18-5.06-8-24a8 8 0 0 0 -7.59-5.47h-24v16h9.986a95.009 95.009 0 0 0 -17.986 56 96.108 96.108 0 0 0 96 96v-16a80.091 80.091 0 0 1 -80-80z" data-original="#000000" class="active-path" data-old_color="#000000" fill="#02135C"/></g></g> </svg>
