<?xml version="1.0"?>
<svg xmlns="http://www.w3.org/2000/svg" height="512px" viewBox="0 0 192 192" width="512px"><g><g id="_20-price" data-name="20-price"><path d="m189.382 106.08-88-80a8 8 0 0 0 -10.764 0l-88 80a8 8 0 0 0 5.382 13.92h16v64a8 8 0 0 0 8 8h128a8 8 0 0 0 8-8v-64h16a8 8 0 0 0 5.382-13.92zm-29.382-2.08a8 8 0 0 0 -8 8v64h-112v-64a8 8 0 0 0 -8-8h-3.308l67.308-61.188 67.308 61.188z" data-original="#000000" class="active-path" data-old_color="#000000" fill="#02135C"/><path d="m88 72v9.376a24 24 0 0 0 8 46.624 8 8 0 0 1 0 16h-24v16h16v8h16v-9.376a24 24 0 0 0 -8-46.624 8 8 0 0 1 0-16h24v-16h-16v-8z" data-original="#000000" class="active-path" data-old_color="#000000" fill="#02135C"/></g></g> </svg>
