<?xml version="1.0"?>
<svg xmlns="http://www.w3.org/2000/svg" height="512px" viewBox="0 0 192 192" width="512px"><g><g id="_16-report" data-name="16-report"><path d="m160 16h-32v-8a8 8 0 0 0 -8-8h-48a8 8 0 0 0 -8 8v8h-32a8 8 0 0 0 -8 8v160a8 8 0 0 0 8 8h128a8 8 0 0 0 8-8v-160a8 8 0 0 0 -8-8zm-80 0h32v16h-32zm72 160h-112v-144h24v8a8 8 0 0 0 8 8h48a8 8 0 0 0 8-8v-8h24z" data-original="#000000" class="active-path" data-old_color="#000000" fill="#02135C"/><path d="m96 120a32 32 0 1 0 -32-32 32.036 32.036 0 0 0 32 32zm15.676-35.207-7.676-2.559v-8.069a16.034 16.034 0 0 1 7.676 10.628zm-23.676-10.628v13.835a8 8 0 0 0 5.47 7.59l13.119 4.373a15.981 15.981 0 1 1 -18.589-25.798z" data-original="#000000" class="active-path" data-old_color="#000000" fill="#02135C"/><path d="m128 128h-16v24h-8v-16h-16v16h-8v-8h-16v8h-8v16h80v-16h-8z" data-original="#000000" class="active-path" data-old_color="#000000" fill="#02135C"/></g></g> </svg>
