<?xml version="1.0"?>
<svg xmlns="http://www.w3.org/2000/svg" height="512px" viewBox="-84 0 512 512" width="512px"><g><path d="m307.34375 124.347656c-35.480469-79.023437-84.8125-124.347656-135.355469-124.347656-50.539062 0-99.875 45.324219-135.355469 124.347656-38.863281 86.566406-54.292968 201.09375-8.585937 252.496094 24.140625 27.148438 69.050781 44.605469 122.609375 48.273438v86.882812h42.667969v-86.886719c53.554687-3.664062 98.464843-21.121093 122.609375-48.273437 45.703125-51.394532 30.273437-165.925782-8.589844-252.492188zm-23.296875 224.144532c-15.984375 17.972656-50.355469 30.488281-90.722656 33.789062v-45.625l69.171875-17.292969-10.351563-41.394531-58.820312 14.707031v-42.632812l49.410156-16.472657-13.496094-40.476562-35.914062 11.976562v-77.070312h-42.667969v77.070312l-35.921875-11.972656-13.492187 40.472656 49.414062 16.472657v42.632812l-58.828125-14.707031-10.347656 41.394531 69.175781 17.292969v45.625c-40.367188-3.300781-74.742188-15.816406-90.722656-33.789062-27.792969-31.253907-20.636719-125.898438 15.625-206.667969 27.460937-61.164063 64.410156-99.15625 96.429687-99.15625 32.023438 0 68.972657 37.992187 96.429688 99.15625 36.265625 80.769531 43.417969 175.414062 15.628906 206.667969zm0 0" data-original="#000000" class="active-path" data-old_color="#000000" fill="#02135C"/></g> </svg>
