<?xml version="1.0"?>
<svg xmlns="http://www.w3.org/2000/svg" height="512px" viewBox="0 0 192 192" width="512px"><g><g id="_22-information" data-name="22-information"><path d="m168 0h-104a8.089 8.089 0 0 0 -5.657 2.343l-40 40a8.091 8.091 0 0 0 -2.343 5.657v136a8 8 0 0 0 8 8h144a8 8 0 0 0 8-8v-176a8 8 0 0 0 -8-8zm-112 27.314v12.686h-12.686zm104 148.686h-128v-120h32a8 8 0 0 0 8-8v-32h88z" data-original="#000000" class="active-path" data-old_color="#000000" fill="#02135C"/><path d="m83.578 55.155 4.422-2.211v19.056a8 8 0 0 0 8 8h32a8 8 0 0 0 8-8v-19.056l4.422 2.211 7.156-14.31-32-16a8 8 0 0 0 -7.156 0l-32 16zm28.422-14.211 8 4v19.056h-16v-19.056z" data-original="#000000" class="active-path" data-old_color="#000000" fill="#02135C"/><path d="m48 96h56v16h-56z" data-original="#000000" class="active-path" data-old_color="#000000" fill="#02135C"/><path d="m48 120h32v16h-32z" data-original="#000000" class="active-path" data-old_color="#000000" fill="#02135C"/><path d="m96 120h48v16h-48z" data-original="#000000" class="active-path" data-old_color="#000000" fill="#02135C"/><path d="m48 144h64v16h-64z" data-original="#000000" class="active-path" data-old_color="#000000" fill="#02135C"/><path d="m128 144h16v16h-16z" data-original="#000000" class="active-path" data-old_color="#000000" fill="#02135C"/><path d="m120 96h24v16h-24z" data-original="#000000" class="active-path" data-old_color="#000000" fill="#02135C"/></g></g> </svg>
