<?xml version="1.0"?>
<svg xmlns="http://www.w3.org/2000/svg" height="512px" viewBox="0 0 192 192" width="512px"><g><g id="_02-sign" data-name="02-sign"><path d="m96 116.944v19.056a8 8 0 0 0 8 8h32a8 8 0 0 0 8-8v-19.056l4.422 2.211 7.156-14.31-32-16a8 8 0 0 0 -7.156 0l-32 16 7.156 14.31zm32-8v19.056h-16v-19.056l8-4z" data-original="#000000" class="active-path" data-old_color="#000000" fill="#02135C"/><path d="m192 40v-16h-144v-24h-16v192h16v-152h32v24h-16a8 8 0 0 0 -8 8v88a8 8 0 0 0 8 8h112a8 8 0 0 0 8-8v-88a8 8 0 0 0 -8-8h-16v-24zm-24 112h-96v-72h96zm-24-88h-48v-24h48z" data-original="#000000" class="active-path" data-old_color="#000000" fill="#02135C"/><path d="m0 0h16v192h-16z" data-original="#000000" class="active-path" data-old_color="#000000" fill="#02135C"/></g></g> </svg>
