<svg width="231" height="220" viewBox="0 0 231 220" fill="none" xmlns="http://www.w3.org/2000/svg">
<path fill-rule="evenodd" clip-rule="evenodd" d="M1.5 158C2.32843 158 3 157.328 3 156.5C3 155.672 2.32843 155 1.5 155C0.671573 155 0 155.672 0 156.5C0 157.328 0.671573 158 1.5 158ZM21.5 158C22.3284 158 23 157.328 23 156.5C23 155.672 22.3284 155 21.5 155C20.6716 155 20 155.672 20 156.5C20 157.328 20.6716 158 21.5 158ZM43 156.5C43 157.328 42.3284 158 41.5 158C40.6716 158 40 157.328 40 156.5C40 155.672 40.6716 155 41.5 155C42.3284 155 43 155.672 43 156.5ZM1.5 178C2.32843 178 3 177.328 3 176.5C3 175.672 2.32843 175 1.5 175C0.671573 175 0 175.672 0 176.5C0 177.328 0.671573 178 1.5 178ZM21.5 178C22.3284 178 23 177.328 23 176.5C23 175.672 22.3284 175 21.5 175C20.6716 175 20 175.672 20 176.5C20 177.328 20.6716 178 21.5 178ZM43 176.5C43 177.328 42.3284 178 41.5 178C40.6716 178 40 177.328 40 176.5C40 175.672 40.6716 175 41.5 175C42.3284 175 43 175.672 43 176.5ZM1.5 197C2.32843 197 3 196.328 3 195.5C3 194.672 2.32843 194 1.5 194C0.671573 194 0 194.672 0 195.5C0 196.328 0.671573 197 1.5 197ZM21.5 197C22.3284 197 23 196.328 23 195.5C23 194.672 22.3284 194 21.5 194C20.6716 194 20 194.672 20 195.5C20 196.328 20.6716 197 21.5 197ZM43 195.5C43 196.328 42.3284 197 41.5 197C40.6716 197 40 196.328 40 195.5C40 194.672 40.6716 194 41.5 194C42.3284 194 43 194.672 43 195.5ZM1.5 217C2.32843 217 3 216.328 3 215.5C3 214.672 2.32843 214 1.5 214C0.671573 214 0 214.672 0 215.5C0 216.328 0.671573 217 1.5 217ZM21.5 217C22.3284 217 23 216.328 23 215.5C23 214.672 22.3284 214 21.5 214C20.6716 214 20 214.672 20 215.5C20 216.328 20.6716 217 21.5 217ZM43 215.5C43 216.328 42.3284 217 41.5 217C40.6716 217 40 216.328 40 215.5C40 214.672 40.6716 214 41.5 214C42.3284 214 43 214.672 43 215.5ZM61.5 158C62.3284 158 63 157.328 63 156.5C63 155.672 62.3284 155 61.5 155C60.6716 155 60 155.672 60 156.5C60 157.328 60.6716 158 61.5 158ZM81.5 158C82.3284 158 83 157.328 83 156.5C83 155.672 82.3284 155 81.5 155C80.6716 155 80 155.672 80 156.5C80 157.328 80.6716 158 81.5 158ZM103 156.5C103 157.328 102.328 158 101.5 158C100.672 158 100 157.328 100 156.5C100 155.672 100.672 155 101.5 155C102.328 155 103 155.672 103 156.5ZM61.5 178C62.3284 178 63 177.328 63 176.5C63 175.672 62.3284 175 61.5 175C60.6716 175 60 175.672 60 176.5C60 177.328 60.6716 178 61.5 178ZM81.5 178C82.3284 178 83 177.328 83 176.5C83 175.672 82.3284 175 81.5 175C80.6716 175 80 175.672 80 176.5C80 177.328 80.6716 178 81.5 178ZM103 176.5C103 177.328 102.328 178 101.5 178C100.672 178 100 177.328 100 176.5C100 175.672 100.672 175 101.5 175C102.328 175 103 175.672 103 176.5ZM61.5 197C62.3284 197 63 196.328 63 195.5C63 194.672 62.3284 194 61.5 194C60.6716 194 60 194.672 60 195.5C60 196.328 60.6716 197 61.5 197ZM81.5 197C82.3284 197 83 196.328 83 195.5C83 194.672 82.3284 194 81.5 194C80.6716 194 80 194.672 80 195.5C80 196.328 80.6716 197 81.5 197ZM103 195.5C103 196.328 102.328 197 101.5 197C100.672 197 100 196.328 100 195.5C100 194.672 100.672 194 101.5 194C102.328 194 103 194.672 103 195.5ZM61.5 217C62.3284 217 63 216.328 63 215.5C63 214.672 62.3284 214 61.5 214C60.6716 214 60 214.672 60 215.5C60 216.328 60.6716 217 61.5 217ZM81.5 217C82.3284 217 83 216.328 83 215.5C83 214.672 82.3284 214 81.5 214C80.6716 214 80 214.672 80 215.5C80 216.328 80.6716 217 81.5 217ZM103 215.5C103 216.328 102.328 217 101.5 217C100.672 217 100 216.328 100 215.5C100 214.672 100.672 214 101.5 214C102.328 214 103 214.672 103 215.5Z" fill="#002E62"/>
<path fill-rule="evenodd" clip-rule="evenodd" d="M1.5 3C2.32843 3 3 2.32843 3 1.5C3 0.671573 2.32843 0 1.5 0C0.671573 0 0 0.671573 0 1.5C0 2.32843 0.671573 3 1.5 3ZM21.5 3C22.3284 3 23 2.32843 23 1.5C23 0.671573 22.3284 0 21.5 0C20.6716 0 20 0.671573 20 1.5C20 2.32843 20.6716 3 21.5 3ZM43 1.5C43 2.32843 42.3284 3 41.5 3C40.6716 3 40 2.32843 40 1.5C40 0.671573 40.6716 0 41.5 0C42.3284 0 43 0.671573 43 1.5ZM1.5 23C2.32843 23 3 22.3284 3 21.5C3 20.6716 2.32843 20 1.5 20C0.671573 20 0 20.6716 0 21.5C0 22.3284 0.671573 23 1.5 23ZM21.5 23C22.3284 23 23 22.3284 23 21.5C23 20.6716 22.3284 20 21.5 20C20.6716 20 20 20.6716 20 21.5C20 22.3284 20.6716 23 21.5 23ZM43 21.5C43 22.3284 42.3284 23 41.5 23C40.6716 23 40 22.3284 40 21.5C40 20.6716 40.6716 20 41.5 20C42.3284 20 43 20.6716 43 21.5ZM1.5 42C2.32843 42 3 41.3284 3 40.5C3 39.6716 2.32843 39 1.5 39C0.671573 39 0 39.6716 0 40.5C0 41.3284 0.671573 42 1.5 42ZM21.5 42C22.3284 42 23 41.3284 23 40.5C23 39.6716 22.3284 39 21.5 39C20.6716 39 20 39.6716 20 40.5C20 41.3284 20.6716 42 21.5 42ZM43 40.5C43 41.3284 42.3284 42 41.5 42C40.6716 42 40 41.3284 40 40.5C40 39.6716 40.6716 39 41.5 39C42.3284 39 43 39.6716 43 40.5ZM1.5 62C2.32843 62 3 61.3284 3 60.5C3 59.6716 2.32843 59 1.5 59C0.671573 59 0 59.6716 0 60.5C0 61.3284 0.671573 62 1.5 62ZM21.5 62C22.3284 62 23 61.3284 23 60.5C23 59.6716 22.3284 59 21.5 59C20.6716 59 20 59.6716 20 60.5C20 61.3284 20.6716 62 21.5 62ZM43 60.5C43 61.3284 42.3284 62 41.5 62C40.6716 62 40 61.3284 40 60.5C40 59.6716 40.6716 59 41.5 59C42.3284 59 43 59.6716 43 60.5ZM61.5 3C62.3284 3 63 2.32843 63 1.5C63 0.671573 62.3284 0 61.5 0C60.6716 0 60 0.671573 60 1.5C60 2.32843 60.6716 3 61.5 3ZM81.5 3C82.3284 3 83 2.32843 83 1.5C83 0.671573 82.3284 0 81.5 0C80.6716 0 80 0.671573 80 1.5C80 2.32843 80.6716 3 81.5 3ZM103 1.5C103 2.32843 102.328 3 101.5 3C100.672 3 100 2.32843 100 1.5C100 0.671573 100.672 0 101.5 0C102.328 0 103 0.671573 103 1.5ZM61.5 23C62.3284 23 63 22.3284 63 21.5C63 20.6716 62.3284 20 61.5 20C60.6716 20 60 20.6716 60 21.5C60 22.3284 60.6716 23 61.5 23ZM81.5 23C82.3284 23 83 22.3284 83 21.5C83 20.6716 82.3284 20 81.5 20C80.6716 20 80 20.6716 80 21.5C80 22.3284 80.6716 23 81.5 23ZM103 21.5C103 22.3284 102.328 23 101.5 23C100.672 23 100 22.3284 100 21.5C100 20.6716 100.672 20 101.5 20C102.328 20 103 20.6716 103 21.5ZM61.5 42C62.3284 42 63 41.3284 63 40.5C63 39.6716 62.3284 39 61.5 39C60.6716 39 60 39.6716 60 40.5C60 41.3284 60.6716 42 61.5 42ZM81.5 42C82.3284 42 83 41.3284 83 40.5C83 39.6716 82.3284 39 81.5 39C80.6716 39 80 39.6716 80 40.5C80 41.3284 80.6716 42 81.5 42ZM103 40.5C103 41.3284 102.328 42 101.5 42C100.672 42 100 41.3284 100 40.5C100 39.6716 100.672 39 101.5 39C102.328 39 103 39.6716 103 40.5ZM61.5 62C62.3284 62 63 61.3284 63 60.5C63 59.6716 62.3284 59 61.5 59C60.6716 59 60 59.6716 60 60.5C60 61.3284 60.6716 62 61.5 62ZM81.5 62C82.3284 62 83 61.3284 83 60.5C83 59.6716 82.3284 59 81.5 59C80.6716 59 80 59.6716 80 60.5C80 61.3284 80.6716 62 81.5 62ZM103 60.5C103 61.3284 102.328 62 101.5 62C100.672 62 100 61.3284 100 60.5C100 59.6716 100.672 59 101.5 59C102.328 59 103 59.6716 103 60.5ZM1.5 82C2.32843 82 3 81.3284 3 80.5C3 79.6716 2.32843 79 1.5 79C0.671573 79 0 79.6716 0 80.5C0 81.3284 0.671573 82 1.5 82ZM21.5 82C22.3284 82 23 81.3284 23 80.5C23 79.6716 22.3284 79 21.5 79C20.6716 79 20 79.6716 20 80.5C20 81.3284 20.6716 82 21.5 82ZM43 80.5C43 81.3284 42.3284 82 41.5 82C40.6716 82 40 81.3284 40 80.5C40 79.6716 40.6716 79 41.5 79C42.3284 79 43 79.6716 43 80.5ZM1.5 102C2.32843 102 3 101.328 3 100.5C3 99.6716 2.32843 99 1.5 99C0.671573 99 0 99.6716 0 100.5C0 101.328 0.671573 102 1.5 102ZM21.5 102C22.3284 102 23 101.328 23 100.5C23 99.6716 22.3284 99 21.5 99C20.6716 99 20 99.6716 20 100.5C20 101.328 20.6716 102 21.5 102ZM43 100.5C43 101.328 42.3284 102 41.5 102C40.6716 102 40 101.328 40 100.5C40 99.6716 40.6716 99 41.5 99C42.3284 99 43 99.6716 43 100.5ZM1.5 121C2.32843 121 3 120.328 3 119.5C3 118.672 2.32843 118 1.5 118C0.671573 118 0 118.672 0 119.5C0 120.328 0.671573 121 1.5 121ZM21.5 121C22.3284 121 23 120.328 23 119.5C23 118.672 22.3284 118 21.5 118C20.6716 118 20 118.672 20 119.5C20 120.328 20.6716 121 21.5 121ZM43 119.5C43 120.328 42.3284 121 41.5 121C40.6716 121 40 120.328 40 119.5C40 118.672 40.6716 118 41.5 118C42.3284 118 43 118.672 43 119.5ZM1.5 141C2.32843 141 3 140.328 3 139.5C3 138.672 2.32843 138 1.5 138C0.671573 138 0 138.672 0 139.5C0 140.328 0.671573 141 1.5 141ZM21.5 141C22.3284 141 23 140.328 23 139.5C23 138.672 22.3284 138 21.5 138C20.6716 138 20 138.672 20 139.5C20 140.328 20.6716 141 21.5 141ZM43 139.5C43 140.328 42.3284 141 41.5 141C40.6716 141 40 140.328 40 139.5C40 138.672 40.6716 138 41.5 138C42.3284 138 43 138.672 43 139.5ZM61.5 82C62.3284 82 63 81.3284 63 80.5C63 79.6716 62.3284 79 61.5 79C60.6716 79 60 79.6716 60 80.5C60 81.3284 60.6716 82 61.5 82ZM81.5 82C82.3284 82 83 81.3284 83 80.5C83 79.6716 82.3284 79 81.5 79C80.6716 79 80 79.6716 80 80.5C80 81.3284 80.6716 82 81.5 82ZM103 80.5C103 81.3284 102.328 82 101.5 82C100.672 82 100 81.3284 100 80.5C100 79.6716 100.672 79 101.5 79C102.328 79 103 79.6716 103 80.5ZM61.5 102C62.3284 102 63 101.328 63 100.5C63 99.6716 62.3284 99 61.5 99C60.6716 99 60 99.6716 60 100.5C60 101.328 60.6716 102 61.5 102ZM81.5 102C82.3284 102 83 101.328 83 100.5C83 99.6716 82.3284 99 81.5 99C80.6716 99 80 99.6716 80 100.5C80 101.328 80.6716 102 81.5 102ZM103 100.5C103 101.328 102.328 102 101.5 102C100.672 102 100 101.328 100 100.5C100 99.6716 100.672 99 101.5 99C102.328 99 103 99.6716 103 100.5ZM61.5 121C62.3284 121 63 120.328 63 119.5C63 118.672 62.3284 118 61.5 118C60.6716 118 60 118.672 60 119.5C60 120.328 60.6716 121 61.5 121ZM81.5 121C82.3284 121 83 120.328 83 119.5C83 118.672 82.3284 118 81.5 118C80.6716 118 80 118.672 80 119.5C80 120.328 80.6716 121 81.5 121ZM103 119.5C103 120.328 102.328 121 101.5 121C100.672 121 100 120.328 100 119.5C100 118.672 100.672 118 101.5 118C102.328 118 103 118.672 103 119.5ZM61.5 141C62.3284 141 63 140.328 63 139.5C63 138.672 62.3284 138 61.5 138C60.6716 138 60 138.672 60 139.5C60 140.328 60.6716 141 61.5 141ZM81.5 141C82.3284 141 83 140.328 83 139.5C83 138.672 82.3284 138 81.5 138C80.6716 138 80 138.672 80 139.5C80 140.328 80.6716 141 81.5 141ZM103 139.5C103 140.328 102.328 141 101.5 141C100.672 141 100 140.328 100 139.5C100 138.672 100.672 138 101.5 138C102.328 138 103 138.672 103 139.5ZM131 159.5C131 160.328 130.328 161 129.5 161C128.672 161 128 160.328 128 159.5C128 158.672 128.672 158 129.5 158C130.328 158 131 158.672 131 159.5ZM151 159.5C151 160.328 150.328 161 149.5 161C148.672 161 148 160.328 148 159.5C148 158.672 148.672 158 149.5 158C150.328 158 151 158.672 151 159.5ZM169.5 161C170.328 161 171 160.328 171 159.5C171 158.672 170.328 158 169.5 158C168.672 158 168 158.672 168 159.5C168 160.328 168.672 161 169.5 161ZM131 179.5C131 180.328 130.328 181 129.5 181C128.672 181 128 180.328 128 179.5C128 178.672 128.672 178 129.5 178C130.328 178 131 178.672 131 179.5ZM151 179.5C151 180.328 150.328 181 149.5 181C148.672 181 148 180.328 148 179.5C148 178.672 148.672 178 149.5 178C150.328 178 151 178.672 151 179.5ZM169.5 181C170.328 181 171 180.328 171 179.5C171 178.672 170.328 178 169.5 178C168.672 178 168 178.672 168 179.5C168 180.328 168.672 181 169.5 181ZM131 198.5C131 199.328 130.328 200 129.5 200C128.672 200 128 199.328 128 198.5C128 197.672 128.672 197 129.5 197C130.328 197 131 197.672 131 198.5ZM151 198.5C151 199.328 150.328 200 149.5 200C148.672 200 148 199.328 148 198.5C148 197.672 148.672 197 149.5 197C150.328 197 151 197.672 151 198.5ZM169.5 200C170.328 200 171 199.328 171 198.5C171 197.672 170.328 197 169.5 197C168.672 197 168 197.672 168 198.5C168 199.328 168.672 200 169.5 200ZM131 218.5C131 219.328 130.328 220 129.5 220C128.672 220 128 219.328 128 218.5C128 217.672 128.672 217 129.5 217C130.328 217 131 217.672 131 218.5ZM151 218.5C151 219.328 150.328 220 149.5 220C148.672 220 148 219.328 148 218.5C148 217.672 148.672 217 149.5 217C150.328 217 151 217.672 151 218.5ZM169.5 220C170.328 220 171 219.328 171 218.5C171 217.672 170.328 217 169.5 217C168.672 217 168 217.672 168 218.5C168 219.328 168.672 220 169.5 220ZM191 159.5C191 160.328 190.328 161 189.5 161C188.672 161 188 160.328 188 159.5C188 158.672 188.672 158 189.5 158C190.328 158 191 158.672 191 159.5ZM211 159.5C211 160.328 210.328 161 209.5 161C208.672 161 208 160.328 208 159.5C208 158.672 208.672 158 209.5 158C210.328 158 211 158.672 211 159.5ZM229.5 161C230.328 161 231 160.328 231 159.5C231 158.672 230.328 158 229.5 158C228.672 158 228 158.672 228 159.5C228 160.328 228.672 161 229.5 161ZM191 179.5C191 180.328 190.328 181 189.5 181C188.672 181 188 180.328 188 179.5C188 178.672 188.672 178 189.5 178C190.328 178 191 178.672 191 179.5ZM211 179.5C211 180.328 210.328 181 209.5 181C208.672 181 208 180.328 208 179.5C208 178.672 208.672 178 209.5 178C210.328 178 211 178.672 211 179.5ZM229.5 181C230.328 181 231 180.328 231 179.5C231 178.672 230.328 178 229.5 178C228.672 178 228 178.672 228 179.5C228 180.328 228.672 181 229.5 181ZM191 198.5C191 199.328 190.328 200 189.5 200C188.672 200 188 199.328 188 198.5C188 197.672 188.672 197 189.5 197C190.328 197 191 197.672 191 198.5ZM211 198.5C211 199.328 210.328 200 209.5 200C208.672 200 208 199.328 208 198.5C208 197.672 208.672 197 209.5 197C210.328 197 211 197.672 211 198.5ZM229.5 200C230.328 200 231 199.328 231 198.5C231 197.672 230.328 197 229.5 197C228.672 197 228 197.672 228 198.5C228 199.328 228.672 200 229.5 200ZM191 218.5C191 219.328 190.328 220 189.5 220C188.672 220 188 219.328 188 218.5C188 217.672 188.672 217 189.5 217C190.328 217 191 217.672 191 218.5ZM211 218.5C211 219.328 210.328 220 209.5 220C208.672 220 208 219.328 208 218.5C208 217.672 208.672 217 209.5 217C210.328 217 211 217.672 211 218.5ZM229.5 220C230.328 220 231 219.328 231 218.5C231 217.672 230.328 217 229.5 217C228.672 217 228 217.672 228 218.5C228 219.328 228.672 220 229.5 220Z" fill="#C4C4C4"/>
</svg>
